<svg width="101" height="24" viewBox="0 0 101 24" fill="none" xmlns="http://www.w3.org/2000/svg">
<g clip-path="url(#clip0_54_2)">
<rect width="101" height="24" rx="4" fill="#2D2D2D"/>
<rect width="55" height="0" transform="translate(0 12)" fill="#262626"/>
<path d="M14.7207 14.6426C14.752 14.7285 14.7676 14.7988 14.7676 14.8535C14.7715 14.9043 14.7578 14.9434 14.7266 14.9707C14.6953 14.998 14.6426 15.0156 14.5684 15.0234C14.498 15.0312 14.4023 15.0352 14.2812 15.0352C14.1602 15.0352 14.0625 15.0312 13.9883 15.0234C13.918 15.0195 13.8633 15.0117 13.8242 15C13.7891 14.9844 13.7617 14.9648 13.7422 14.9414C13.7266 14.918 13.7109 14.8887 13.6953 14.8535L13.0449 13.0078H9.89258L9.27148 14.8301C9.25977 14.8652 9.24414 14.8965 9.22461 14.9238C9.20508 14.9473 9.17578 14.9688 9.13672 14.9883C9.10156 15.0039 9.04883 15.0156 8.97852 15.0234C8.91211 15.0312 8.82422 15.0352 8.71484 15.0352C8.60156 15.0352 8.50781 15.0293 8.43359 15.0176C8.36328 15.0098 8.3125 14.9922 8.28125 14.9648C8.25391 14.9375 8.24023 14.8984 8.24023 14.8477C8.24414 14.793 8.26172 14.7227 8.29297 14.6367L10.8359 7.59375C10.8516 7.55078 10.8711 7.51562 10.8945 7.48828C10.9219 7.46094 10.959 7.43945 11.0059 7.42383C11.0566 7.4082 11.1191 7.39844 11.1934 7.39453C11.2715 7.38672 11.3691 7.38281 11.4863 7.38281C11.6113 7.38281 11.7148 7.38672 11.7969 7.39453C11.8789 7.39844 11.9453 7.4082 11.9961 7.42383C12.0469 7.43945 12.0859 7.46289 12.1133 7.49414C12.1406 7.52148 12.1621 7.55664 12.1777 7.59961L14.7207 14.6426ZM11.457 8.42578H11.4512L10.1445 12.2051H12.7812L11.457 8.42578ZM20.4219 14.8535C20.4219 14.8848 20.4141 14.9121 20.3984 14.9355C20.3828 14.9551 20.3574 14.9727 20.3223 14.9883C20.2871 15.0039 20.2383 15.0156 20.1758 15.0234C20.1133 15.0312 20.0352 15.0352 19.9414 15.0352C19.8438 15.0352 19.7637 15.0312 19.7012 15.0234C19.6387 15.0156 19.5898 15.0039 19.5547 14.9883C19.5195 14.9727 19.4941 14.9551 19.4785 14.9355C19.4629 14.9121 19.4551 14.8848 19.4551 14.8535V11.7656C19.4551 11.4648 19.4316 11.2227 19.3848 11.0391C19.3379 10.8555 19.2695 10.6973 19.1797 10.5645C19.0898 10.4316 18.9727 10.3301 18.8281 10.2598C18.6875 10.1895 18.5234 10.1543 18.3359 10.1543C18.0938 10.1543 17.8516 10.2402 17.6094 10.4121C17.3672 10.584 17.1133 10.8359 16.8477 11.168V14.8535C16.8477 14.8848 16.8398 14.9121 16.8242 14.9355C16.8086 14.9551 16.7832 14.9727 16.748 14.9883C16.7129 15.0039 16.6641 15.0156 16.6016 15.0234C16.5391 15.0312 16.459 15.0352 16.3613 15.0352C16.2676 15.0352 16.1895 15.0312 16.127 15.0234C16.0645 15.0156 16.0137 15.0039 15.9746 14.9883C15.9395 14.9727 15.9141 14.9551 15.8984 14.9355C15.8867 14.9121 15.8809 14.8848 15.8809 14.8535V9.58008C15.8809 9.54883 15.8867 9.52344 15.8984 9.50391C15.9102 9.48047 15.9336 9.46094 15.9688 9.44531C16.0039 9.42578 16.0488 9.41406 16.1035 9.41016C16.1582 9.40234 16.2305 9.39844 16.3203 9.39844C16.4062 9.39844 16.4766 9.40234 16.5312 9.41016C16.5898 9.41406 16.6348 9.42578 16.666 9.44531C16.6973 9.46094 16.7188 9.48047 16.7305 9.50391C16.7461 9.52344 16.7539 9.54883 16.7539 9.58008V10.2773C17.0508 9.94531 17.3457 9.70312 17.6387 9.55078C17.9355 9.39453 18.2344 9.31641 18.5352 9.31641C18.8867 9.31641 19.1816 9.37695 19.4199 9.49805C19.6621 9.61523 19.8574 9.77344 20.0059 9.97266C20.1543 10.1719 20.2598 10.4062 20.3223 10.6758C20.3887 10.9414 20.4219 11.2617 20.4219 11.6367V14.8535ZM26.7031 14.8535C26.7031 14.8848 26.6953 14.9121 26.6797 14.9355C26.668 14.959 26.6445 14.9785 26.6094 14.9941C26.5781 15.0059 26.5352 15.0156 26.4805 15.0234C26.4258 15.0312 26.3594 15.0352 26.2812 15.0352C26.1992 15.0352 26.1309 15.0312 26.0762 15.0234C26.0215 15.0156 25.9766 15.0059 25.9414 14.9941C25.9062 14.9785 25.8809 14.959 25.8652 14.9355C25.8496 14.9121 25.8418 14.8848 25.8418 14.8535V14.1562C25.5645 14.457 25.2754 14.6914 24.9746 14.8594C24.6777 15.0273 24.3516 15.1113 23.9961 15.1113C23.6094 15.1113 23.2793 15.0371 23.0059 14.8887C22.7324 14.7363 22.5098 14.5332 22.3379 14.2793C22.1699 14.0215 22.0469 13.7207 21.9688 13.377C21.8906 13.0293 21.8516 12.6641 21.8516 12.2812C21.8516 11.8281 21.9004 11.4199 21.998 11.0566C22.0957 10.6895 22.2402 10.377 22.4316 10.1191C22.623 9.86133 22.8594 9.66406 23.1406 9.52734C23.4258 9.38672 23.7539 9.31641 24.125 9.31641C24.4336 9.31641 24.7148 9.38477 24.9688 9.52148C25.2266 9.6543 25.4805 9.85156 25.7305 10.1133V7.04883C25.7305 7.02148 25.7363 6.99609 25.748 6.97266C25.7637 6.94531 25.791 6.92578 25.8301 6.91406C25.8691 6.89844 25.918 6.88672 25.9766 6.87891C26.0391 6.86719 26.1172 6.86133 26.2109 6.86133C26.3086 6.86133 26.3887 6.86719 26.4512 6.87891C26.5137 6.88672 26.5625 6.89844 26.5977 6.91406C26.6328 6.92578 26.6582 6.94531 26.6738 6.97266C26.6934 6.99609 26.7031 7.02148 26.7031 7.04883V14.8535ZM25.7305 11.1445C25.4688 10.8203 25.2148 10.5742 24.9688 10.4062C24.7266 10.2344 24.4727 10.1484 24.207 10.1484C23.9609 10.1484 23.752 10.207 23.5801 10.3242C23.4082 10.4414 23.2676 10.5957 23.1582 10.7871C23.0527 10.9785 22.9746 11.1953 22.9238 11.4375C22.877 11.6797 22.8535 11.9258 22.8535 12.1758C22.8535 12.4414 22.873 12.7012 22.9121 12.9551C22.9551 13.209 23.0273 13.4355 23.1289 13.6348C23.2305 13.8301 23.3652 13.9883 23.5332 14.1094C23.7012 14.2266 23.9121 14.2852 24.166 14.2852C24.2949 14.2852 24.418 14.2676 24.5352 14.2324C24.6562 14.1973 24.7793 14.1387 24.9043 14.0566C25.0293 13.9746 25.1602 13.8691 25.2969 13.7402C25.4336 13.6074 25.5781 13.4453 25.7305 13.2539V11.1445ZM31.5723 9.92578C31.5723 10.0117 31.5703 10.084 31.5664 10.1426C31.5625 10.2012 31.5547 10.248 31.543 10.2832C31.5312 10.3145 31.5156 10.3398 31.4961 10.3594C31.4805 10.375 31.457 10.3828 31.4258 10.3828C31.3945 10.3828 31.3555 10.375 31.3086 10.3594C31.2656 10.3398 31.2148 10.3223 31.1562 10.3066C31.1016 10.2871 31.0391 10.2695 30.9688 10.2539C30.8984 10.2383 30.8223 10.2305 30.7402 10.2305C30.6426 10.2305 30.5469 10.25 30.4531 10.2891C30.3594 10.3281 30.2598 10.3926 30.1543 10.4824C30.0527 10.5723 29.9453 10.6914 29.832 10.8398C29.7188 10.9883 29.5938 11.1699 29.457 11.3848V14.8535C29.457 14.8848 29.4492 14.9121 29.4336 14.9355C29.418 14.9551 29.3926 14.9727 29.3574 14.9883C29.3223 15.0039 29.2734 15.0156 29.2109 15.0234C29.1484 15.0312 29.0684 15.0352 28.9707 15.0352C28.877 15.0352 28.7988 15.0312 28.7363 15.0234C28.6738 15.0156 28.623 15.0039 28.584 14.9883C28.5488 14.9727 28.5234 14.9551 28.5078 14.9355C28.4961 14.9121 28.4902 14.8848 28.4902 14.8535V9.58008C28.4902 9.54883 28.4961 9.52344 28.5078 9.50391C28.5195 9.48047 28.543 9.46094 28.5781 9.44531C28.6133 9.42578 28.6582 9.41406 28.7129 9.41016C28.7676 9.40234 28.8398 9.39844 28.9297 9.39844C29.0156 9.39844 29.0859 9.40234 29.1406 9.41016C29.1992 9.41406 29.2441 9.42578 29.2754 9.44531C29.3066 9.46094 29.3281 9.48047 29.3398 9.50391C29.3555 9.52344 29.3633 9.54883 29.3633 9.58008V10.3477C29.5078 10.1367 29.6426 9.96484 29.7676 9.83203C29.8965 9.69922 30.0176 9.5957 30.1309 9.52148C30.2441 9.44336 30.3555 9.39062 30.4648 9.36328C30.5781 9.33203 30.6914 9.31641 30.8047 9.31641C30.8555 9.31641 30.9121 9.32031 30.9746 9.32812C31.041 9.33203 31.1094 9.3418 31.1797 9.35742C31.25 9.37305 31.3125 9.39062 31.3672 9.41016C31.4258 9.42969 31.4668 9.44922 31.4902 9.46875C31.5137 9.48828 31.5293 9.50781 31.5371 9.52734C31.5449 9.54297 31.5508 9.56445 31.5547 9.5918C31.5625 9.61914 31.5664 9.66016 31.5664 9.71484C31.5703 9.76562 31.5723 9.83594 31.5723 9.92578ZM37.3789 12.1582C37.3789 12.5879 37.3223 12.9844 37.209 13.3477C37.0957 13.707 36.9258 14.0176 36.6992 14.2793C36.4766 14.541 36.1953 14.7461 35.8555 14.8945C35.5195 15.0391 35.1289 15.1113 34.6836 15.1113C34.25 15.1113 33.8711 15.0469 33.5469 14.918C33.2266 14.7891 32.959 14.6016 32.7441 14.3555C32.5293 14.1094 32.3691 13.8105 32.2637 13.459C32.1582 13.1074 32.1055 12.709 32.1055 12.2637C32.1055 11.834 32.1602 11.4395 32.2695 11.0801C32.3828 10.7168 32.5508 10.4043 32.7734 10.1426C33 9.88086 33.2812 9.67773 33.6172 9.5332C33.9531 9.38867 34.3457 9.31641 34.7949 9.31641C35.2285 9.31641 35.6055 9.38086 35.9258 9.50977C36.25 9.63867 36.5195 9.82617 36.7344 10.0723C36.9492 10.3184 37.1094 10.6172 37.2148 10.9688C37.3242 11.3203 37.3789 11.7168 37.3789 12.1582ZM36.3594 12.2227C36.3594 11.9375 36.332 11.668 36.2773 11.4141C36.2266 11.1602 36.1406 10.9375 36.0195 10.7461C35.8984 10.5547 35.7344 10.4043 35.5273 10.2949C35.3203 10.1816 35.0625 10.125 34.7539 10.125C34.4688 10.125 34.2227 10.1758 34.0156 10.2773C33.8125 10.3789 33.6445 10.5234 33.5117 10.7109C33.3789 10.8945 33.2793 11.1133 33.2129 11.3672C33.1504 11.6211 33.1191 11.8984 33.1191 12.1992C33.1191 12.4883 33.1445 12.7598 33.1953 13.0137C33.25 13.2676 33.3379 13.4902 33.459 13.6816C33.584 13.8691 33.75 14.0195 33.957 14.1328C34.1641 14.2422 34.4219 14.2969 34.7305 14.2969C35.0117 14.2969 35.2559 14.2461 35.4629 14.1445C35.6699 14.043 35.8398 13.9004 35.9727 13.7168C36.1055 13.5332 36.2031 13.3145 36.2656 13.0605C36.3281 12.8066 36.3594 12.5273 36.3594 12.2227ZM39.7695 14.8535C39.7695 14.8848 39.7617 14.9121 39.7461 14.9355C39.7305 14.9551 39.7051 14.9727 39.6699 14.9883C39.6348 15.0039 39.5859 15.0156 39.5234 15.0234C39.4609 15.0312 39.3809 15.0352 39.2832 15.0352C39.1895 15.0352 39.1113 15.0312 39.0488 15.0234C38.9863 15.0156 38.9355 15.0039 38.8965 14.9883C38.8613 14.9727 38.8359 14.9551 38.8203 14.9355C38.8086 14.9121 38.8027 14.8848 38.8027 14.8535V9.58008C38.8027 9.55273 38.8086 9.52734 38.8203 9.50391C38.8359 9.48047 38.8613 9.46094 38.8965 9.44531C38.9355 9.42969 38.9863 9.41797 39.0488 9.41016C39.1113 9.40234 39.1895 9.39844 39.2832 9.39844C39.3809 9.39844 39.4609 9.40234 39.5234 9.41016C39.5859 9.41797 39.6348 9.42969 39.6699 9.44531C39.7051 9.46094 39.7305 9.48047 39.7461 9.50391C39.7617 9.52734 39.7695 9.55273 39.7695 9.58008V14.8535ZM39.8809 7.79883C39.8809 8.02539 39.8379 8.17969 39.752 8.26172C39.666 8.34375 39.5078 8.38477 39.2773 8.38477C39.0508 8.38477 38.8945 8.3457 38.8086 8.26758C38.7266 8.18555 38.6855 8.0332 38.6855 7.81055C38.6855 7.58398 38.7285 7.42969 38.8145 7.34766C38.9004 7.26562 39.0586 7.22461 39.2891 7.22461C39.5156 7.22461 39.6699 7.26562 39.752 7.34766C39.8379 7.42578 39.8809 7.57617 39.8809 7.79883ZM46.0742 14.8535C46.0742 14.8848 46.0664 14.9121 46.0508 14.9355C46.0391 14.959 46.0156 14.9785 45.9805 14.9941C45.9492 15.0059 45.9062 15.0156 45.8516 15.0234C45.7969 15.0312 45.7305 15.0352 45.6523 15.0352C45.5703 15.0352 45.502 15.0312 45.4473 15.0234C45.3926 15.0156 45.3477 15.0059 45.3125 14.9941C45.2773 14.9785 45.252 14.959 45.2363 14.9355C45.2207 14.9121 45.2129 14.8848 45.2129 14.8535V14.1562C44.9355 14.457 44.6465 14.6914 44.3457 14.8594C44.0488 15.0273 43.7227 15.1113 43.3672 15.1113C42.9805 15.1113 42.6504 15.0371 42.377 14.8887C42.1035 14.7363 41.8809 14.5332 41.709 14.2793C41.541 14.0215 41.418 13.7207 41.3398 13.377C41.2617 13.0293 41.2227 12.6641 41.2227 12.2812C41.2227 11.8281 41.2715 11.4199 41.3691 11.0566C41.4668 10.6895 41.6113 10.377 41.8027 10.1191C41.9941 9.86133 42.2305 9.66406 42.5117 9.52734C42.7969 9.38672 43.125 9.31641 43.4961 9.31641C43.8047 9.31641 44.0859 9.38477 44.3398 9.52148C44.5977 9.6543 44.8516 9.85156 45.1016 10.1133V7.04883C45.1016 7.02148 45.1074 6.99609 45.1191 6.97266C45.1348 6.94531 45.1621 6.92578 45.2012 6.91406C45.2402 6.89844 45.2891 6.88672 45.3477 6.87891C45.4102 6.86719 45.4883 6.86133 45.582 6.86133C45.6797 6.86133 45.7598 6.86719 45.8223 6.87891C45.8848 6.88672 45.9336 6.89844 45.9688 6.91406C46.0039 6.92578 46.0293 6.94531 46.0449 6.97266C46.0645 6.99609 46.0742 7.02148 46.0742 7.04883V14.8535ZM45.1016 11.1445C44.8398 10.8203 44.5859 10.5742 44.3398 10.4062C44.0977 10.2344 43.8438 10.1484 43.5781 10.1484C43.332 10.1484 43.123 10.207 42.9512 10.3242C42.7793 10.4414 42.6387 10.5957 42.5293 10.7871C42.4238 10.9785 42.3457 11.1953 42.2949 11.4375C42.248 11.6797 42.2246 11.9258 42.2246 12.1758C42.2246 12.4414 42.2441 12.7012 42.2832 12.9551C42.3262 13.209 42.3984 13.4355 42.5 13.6348C42.6016 13.8301 42.7363 13.9883 42.9043 14.1094C43.0723 14.2266 43.2832 14.2852 43.5371 14.2852C43.666 14.2852 43.7891 14.2676 43.9062 14.2324C44.0273 14.1973 44.1504 14.1387 44.2754 14.0566C44.4004 13.9746 44.5312 13.8691 44.668 13.7402C44.8047 13.6074 44.9492 13.4453 45.1016 13.2539V11.1445Z" fill="white"/>
<rect width="46" height="24" transform="translate(55)" fill="#8C4A60"/>
<path d="M68.3496 9.56836C68.3496 9.58398 68.3477 9.60156 68.3438 9.62109C68.3438 9.63672 68.3418 9.6543 68.3379 9.67383C68.334 9.69336 68.3281 9.71484 68.3203 9.73828C68.3164 9.76172 68.3105 9.78711 68.3027 9.81445L66.5039 14.8242C66.4883 14.8672 66.4668 14.9023 66.4395 14.9297C66.416 14.957 66.3789 14.9785 66.3281 14.9941C66.2773 15.0098 66.2129 15.0195 66.1348 15.0234C66.0566 15.0312 65.959 15.0352 65.8418 15.0352C65.7246 15.0352 65.627 15.0312 65.5488 15.0234C65.4707 15.0156 65.4062 15.0039 65.3555 14.9883C65.3086 14.9727 65.2715 14.9512 65.2441 14.9238C65.2168 14.8965 65.1953 14.8633 65.1797 14.8242L63.3867 9.81445C63.3711 9.76758 63.3574 9.72656 63.3457 9.69141C63.3379 9.65625 63.332 9.63086 63.3281 9.61523C63.3281 9.5957 63.3281 9.58008 63.3281 9.56836C63.3281 9.53711 63.3359 9.50977 63.3516 9.48633C63.3672 9.46289 63.3926 9.44531 63.4277 9.43359C63.4668 9.41797 63.5156 9.4082 63.5742 9.4043C63.6367 9.40039 63.7129 9.39844 63.8027 9.39844C63.916 9.39844 64.0059 9.40234 64.0723 9.41016C64.1426 9.41406 64.1953 9.42383 64.2305 9.43945C64.2695 9.45508 64.2969 9.47461 64.3125 9.49805C64.332 9.52148 64.3496 9.55078 64.3652 9.58594L65.8535 13.9336L65.877 14.0039L65.8945 13.9336L67.3652 9.58594C67.373 9.55078 67.3867 9.52148 67.4062 9.49805C67.4258 9.47461 67.4531 9.45508 67.4883 9.43945C67.5273 9.42383 67.5781 9.41406 67.6406 9.41016C67.707 9.40234 67.793 9.39844 67.8984 9.39844C67.9883 9.39844 68.0625 9.40039 68.1211 9.4043C68.1797 9.4082 68.2246 9.41797 68.2559 9.43359C68.291 9.44922 68.3145 9.46875 68.3262 9.49219C68.3418 9.51172 68.3496 9.53711 68.3496 9.56836ZM73.9863 14.6016C73.9863 14.6758 73.9805 14.7383 73.9688 14.7891C73.957 14.8398 73.9414 14.8809 73.9219 14.9121C73.9023 14.9434 73.8789 14.9668 73.8516 14.9824C73.8281 14.9941 73.8027 15 73.7754 15H69.8145C69.7871 15 69.7617 14.9941 69.7383 14.9824C69.7148 14.9668 69.6914 14.9434 69.668 14.9121C69.6484 14.8809 69.6328 14.8398 69.6211 14.7891C69.6094 14.7383 69.6035 14.6758 69.6035 14.6016C69.6035 14.5312 69.6094 14.4707 69.6211 14.4199C69.6328 14.3691 69.6465 14.3281 69.6621 14.2969C69.6816 14.2617 69.7031 14.2363 69.7266 14.2207C69.7539 14.2012 69.7832 14.1914 69.8145 14.1914H71.3965V8.42578L69.9316 9.29883C69.8574 9.33789 69.7969 9.36133 69.75 9.36914C69.707 9.37695 69.6719 9.36914 69.6445 9.3457C69.6172 9.31836 69.5977 9.27539 69.5859 9.2168C69.5781 9.1582 69.5742 9.08398 69.5742 8.99414C69.5742 8.92773 69.5762 8.87109 69.5801 8.82422C69.5879 8.77734 69.5977 8.73828 69.6094 8.70703C69.6211 8.67578 69.6367 8.64844 69.6562 8.625C69.6797 8.60156 69.709 8.57812 69.7441 8.55469L71.4902 7.43555C71.5059 7.42383 71.5254 7.41406 71.5488 7.40625C71.5723 7.39844 71.6016 7.39062 71.6367 7.38281C71.6719 7.375 71.7129 7.37109 71.7598 7.37109C71.8066 7.36719 71.8652 7.36523 71.9355 7.36523C72.0293 7.36523 72.1074 7.36914 72.1699 7.37695C72.2324 7.38477 72.2812 7.39648 72.3164 7.41211C72.3516 7.42383 72.375 7.44141 72.3867 7.46484C72.3984 7.48438 72.4043 7.50586 72.4043 7.5293V14.1914H73.7754C73.8066 14.1914 73.8359 14.2012 73.8633 14.2207C73.8906 14.2363 73.9121 14.2617 73.9277 14.2969C73.9473 14.3281 73.9609 14.3691 73.9688 14.4199C73.9805 14.4707 73.9863 14.5312 73.9863 14.6016ZM76.7812 14.3613C76.7812 14.6387 76.7344 14.8242 76.6406 14.918C76.5508 15.0078 76.3848 15.0527 76.1426 15.0527C75.9082 15.0527 75.7461 15.0078 75.6562 14.918C75.5664 14.8281 75.5215 14.6484 75.5215 14.3789C75.5215 14.1016 75.5664 13.918 75.6562 13.8281C75.75 13.7344 75.918 13.6875 76.1602 13.6875C76.3945 13.6875 76.5566 13.7324 76.6465 13.8223C76.7363 13.9121 76.7812 14.0918 76.7812 14.3613ZM83.3379 11.1914C83.3379 11.7734 83.291 12.3047 83.1973 12.7852C83.1074 13.2656 82.9551 13.6797 82.7402 14.0273C82.5293 14.3711 82.252 14.6387 81.9082 14.8301C81.5645 15.0176 81.1406 15.1113 80.6367 15.1113C80.1602 15.1113 79.7578 15.0273 79.4297 14.8594C79.1055 14.6875 78.8438 14.4375 78.6445 14.1094C78.4453 13.7773 78.3027 13.3711 78.2168 12.8906C78.1348 12.4062 78.0938 11.8516 78.0938 11.2266C78.0938 10.6484 78.1406 10.1191 78.2344 9.63867C78.3281 9.1543 78.4805 8.74023 78.6914 8.39648C78.9023 8.04883 79.1797 7.78125 79.5234 7.59375C79.8672 7.40234 80.2891 7.30664 80.7891 7.30664C81.2695 7.30664 81.6719 7.39258 81.9961 7.56445C82.3242 7.73242 82.5879 7.98242 82.7871 8.31445C82.9863 8.64258 83.127 9.04883 83.209 9.5332C83.2949 10.0137 83.3379 10.5664 83.3379 11.1914ZM82.3066 11.2617C82.3066 10.8828 82.293 10.543 82.2656 10.2422C82.2383 9.94141 82.1973 9.67578 82.1426 9.44531C82.0918 9.21484 82.0234 9.01758 81.9375 8.85352C81.8555 8.68555 81.7559 8.54883 81.6387 8.44336C81.5215 8.33398 81.3867 8.25586 81.2344 8.20898C81.0859 8.1582 80.918 8.13281 80.7305 8.13281C80.3984 8.13281 80.1289 8.21094 79.9219 8.36719C79.7148 8.52344 79.5508 8.73828 79.4297 9.01172C79.3125 9.28516 79.2324 9.60547 79.1895 9.97266C79.1465 10.3398 79.125 10.7344 79.125 11.1562C79.125 11.7227 79.1543 12.2051 79.2129 12.6035C79.2715 12.998 79.3633 13.3203 79.4883 13.5703C79.6172 13.8203 79.7793 14.002 79.9746 14.1152C80.1738 14.2285 80.4141 14.2852 80.6953 14.2852C80.9141 14.2852 81.1055 14.25 81.2695 14.1797C81.4375 14.1094 81.5801 14.0098 81.6973 13.8809C81.8184 13.748 81.918 13.5898 81.9961 13.4062C82.0742 13.2227 82.1367 13.0195 82.1836 12.7969C82.2305 12.5742 82.2617 12.334 82.2773 12.0762C82.2969 11.8145 82.3066 11.543 82.3066 11.2617ZM85.8984 14.3613C85.8984 14.6387 85.8516 14.8242 85.7578 14.918C85.668 15.0078 85.502 15.0527 85.2598 15.0527C85.0254 15.0527 84.8633 15.0078 84.7734 14.918C84.6836 14.8281 84.6387 14.6484 84.6387 14.3789C84.6387 14.1016 84.6836 13.918 84.7734 13.8281C84.8672 13.7344 85.0352 13.6875 85.2773 13.6875C85.5117 13.6875 85.6738 13.7324 85.7637 13.8223C85.8535 13.9121 85.8984 14.0918 85.8984 14.3613ZM92.4551 11.1914C92.4551 11.7734 92.4082 12.3047 92.3145 12.7852C92.2246 13.2656 92.0723 13.6797 91.8574 14.0273C91.6465 14.3711 91.3691 14.6387 91.0254 14.8301C90.6816 15.0176 90.2578 15.1113 89.7539 15.1113C89.2773 15.1113 88.875 15.0273 88.5469 14.8594C88.2227 14.6875 87.9609 14.4375 87.7617 14.1094C87.5625 13.7773 87.4199 13.3711 87.334 12.8906C87.252 12.4062 87.2109 11.8516 87.2109 11.2266C87.2109 10.6484 87.2578 10.1191 87.3516 9.63867C87.4453 9.1543 87.5977 8.74023 87.8086 8.39648C88.0195 8.04883 88.2969 7.78125 88.6406 7.59375C88.9844 7.40234 89.4062 7.30664 89.9062 7.30664C90.3867 7.30664 90.7891 7.39258 91.1133 7.56445C91.4414 7.73242 91.7051 7.98242 91.9043 8.31445C92.1035 8.64258 92.2441 9.04883 92.3262 9.5332C92.4121 10.0137 92.4551 10.5664 92.4551 11.1914ZM91.4238 11.2617C91.4238 10.8828 91.4102 10.543 91.3828 10.2422C91.3555 9.94141 91.3145 9.67578 91.2598 9.44531C91.209 9.21484 91.1406 9.01758 91.0547 8.85352C90.9727 8.68555 90.873 8.54883 90.7559 8.44336C90.6387 8.33398 90.5039 8.25586 90.3516 8.20898C90.2031 8.1582 90.0352 8.13281 89.8477 8.13281C89.5156 8.13281 89.2461 8.21094 89.0391 8.36719C88.832 8.52344 88.668 8.73828 88.5469 9.01172C88.4297 9.28516 88.3496 9.60547 88.3066 9.97266C88.2637 10.3398 88.2422 10.7344 88.2422 11.1562C88.2422 11.7227 88.2715 12.2051 88.3301 12.6035C88.3887 12.998 88.4805 13.3203 88.6055 13.5703C88.7344 13.8203 88.8965 14.002 89.0918 14.1152C89.291 14.2285 89.5312 14.2852 89.8125 14.2852C90.0312 14.2852 90.2227 14.25 90.3867 14.1797C90.5547 14.1094 90.6973 14.0098 90.8145 13.8809C90.9355 13.748 91.0352 13.5898 91.1133 13.4062C91.1914 13.2227 91.2539 13.0195 91.3008 12.7969C91.3477 12.5742 91.3789 12.334 91.3945 12.0762C91.4141 11.8145 91.4238 11.543 91.4238 11.2617Z" fill="white"/>
</g>
<defs>
<clipPath id="clip0_54_2">
<rect width="101" height="24" rx="4" fill="white"/>
</clipPath>
</defs>
</svg>
