<svg width="242" height="24" viewBox="0 0 242 24" fill="none" xmlns="http://www.w3.org/2000/svg">
<g clip-path="url(#clip0_49_22)">
<rect width="242" height="24" rx="4" fill="black"/>
<rect width="91" height="0" transform="translate(0 12)" fill="#262626"/>
<path d="M9.03711 16V7.41016H11.9961C12.6641 7.41016 13.1738 7.45117 13.5254 7.5332C14.0176 7.64648 14.4375 7.85156 14.7852 8.14844C15.2383 8.53125 15.5762 9.02148 15.7988 9.61914C16.0254 10.2129 16.1387 10.8926 16.1387 11.6582C16.1387 12.3105 16.0625 12.8887 15.9102 13.3926C15.7578 13.8965 15.5625 14.3145 15.3242 14.6465C15.0859 14.9746 14.8242 15.2344 14.5391 15.4258C14.2578 15.6133 13.916 15.7559 13.5137 15.8535C13.1152 15.9512 12.6562 16 12.1367 16H9.03711ZM10.1738 14.9863H12.0078C12.5742 14.9863 13.0176 14.9336 13.3379 14.8281C13.6621 14.7227 13.9199 14.5742 14.1113 14.3828C14.3809 14.1133 14.5898 13.752 14.7383 13.2988C14.8906 12.8418 14.9668 12.2891 14.9668 11.6406C14.9668 10.7422 14.8184 10.0527 14.5215 9.57227C14.2285 9.08789 13.8711 8.76367 13.4492 8.59961C13.1445 8.48242 12.6543 8.42383 11.9785 8.42383H10.1738V14.9863ZM21.834 13.9961L22.9238 14.1309C22.752 14.7676 22.4336 15.2617 21.9688 15.6133C21.5039 15.9648 20.9102 16.1406 20.1875 16.1406C19.2773 16.1406 18.5547 15.8613 18.0195 15.3027C17.4883 14.7402 17.2227 13.9531 17.2227 12.9414C17.2227 11.8945 17.4922 11.082 18.0312 10.5039C18.5703 9.92578 19.2695 9.63672 20.1289 9.63672C20.9609 9.63672 21.6406 9.91992 22.168 10.4863C22.6953 11.0527 22.959 11.8496 22.959 12.877C22.959 12.9395 22.957 13.0332 22.9531 13.1582H18.3125C18.3516 13.8418 18.5449 14.3652 18.8926 14.7285C19.2402 15.0918 19.6738 15.2734 20.1934 15.2734C20.5801 15.2734 20.9102 15.1719 21.1836 14.9688C21.457 14.7656 21.6738 14.4414 21.834 13.9961ZM18.3711 12.291H21.8457C21.7988 11.7676 21.666 11.375 21.4473 11.1133C21.1113 10.707 20.6758 10.5039 20.1406 10.5039C19.6562 10.5039 19.248 10.666 18.916 10.9902C18.5879 11.3145 18.4062 11.748 18.3711 12.291ZM25.9824 16L23.6152 9.77734H24.7285L26.0645 13.5039C26.209 13.9062 26.3418 14.3242 26.4629 14.7578C26.5566 14.4297 26.6875 14.0352 26.8555 13.5742L28.2383 9.77734H29.3223L26.9668 16H25.9824ZM34.5137 13.9961L35.6035 14.1309C35.4316 14.7676 35.1133 15.2617 34.6484 15.6133C34.1836 15.9648 33.5898 16.1406 32.8672 16.1406C31.957 16.1406 31.2344 15.8613 30.6992 15.3027C30.168 14.7402 29.9023 13.9531 29.9023 12.9414C29.9023 11.8945 30.1719 11.082 30.7109 10.5039C31.25 9.92578 31.9492 9.63672 32.8086 9.63672C33.6406 9.63672 34.3203 9.91992 34.8477 10.4863C35.375 11.0527 35.6387 11.8496 35.6387 12.877C35.6387 12.9395 35.6367 13.0332 35.6328 13.1582H30.9922C31.0312 13.8418 31.2246 14.3652 31.5723 14.7285C31.9199 15.0918 32.3535 15.2734 32.873 15.2734C33.2598 15.2734 33.5898 15.1719 33.8633 14.9688C34.1367 14.7656 34.3535 14.4414 34.5137 13.9961ZM31.0508 12.291H34.5254C34.4785 11.7676 34.3457 11.375 34.127 11.1133C33.791 10.707 33.3555 10.5039 32.8203 10.5039C32.3359 10.5039 31.9277 10.666 31.5957 10.9902C31.2676 11.3145 31.0859 11.748 31.0508 12.291ZM36.9102 16V7.41016H37.9648V16H36.9102ZM39.2129 12.8887C39.2129 11.7363 39.5332 10.8828 40.1738 10.3281C40.709 9.86719 41.3613 9.63672 42.1309 9.63672C42.9863 9.63672 43.6855 9.91797 44.2285 10.4805C44.7715 11.0391 45.043 11.8125 45.043 12.8008C45.043 13.6016 44.9219 14.2324 44.6797 14.6934C44.4414 15.1504 44.0918 15.5059 43.6309 15.7598C43.1738 16.0137 42.6738 16.1406 42.1309 16.1406C41.2598 16.1406 40.5547 15.8613 40.0156 15.3027C39.4805 14.7441 39.2129 13.9395 39.2129 12.8887ZM40.2969 12.8887C40.2969 13.6855 40.4707 14.2832 40.8184 14.6816C41.166 15.0762 41.6035 15.2734 42.1309 15.2734C42.6543 15.2734 43.0898 15.0742 43.4375 14.6758C43.7852 14.2773 43.959 13.6699 43.959 12.8535C43.959 12.084 43.7832 11.502 43.4316 11.1074C43.084 10.709 42.6504 10.5098 42.1309 10.5098C41.6035 10.5098 41.166 10.707 40.8184 11.1016C40.4707 11.4961 40.2969 12.0918 40.2969 12.8887ZM46.2852 18.3848V9.77734H47.2461V10.5859C47.4727 10.2695 47.7285 10.0332 48.0137 9.87695C48.2988 9.7168 48.6445 9.63672 49.0508 9.63672C49.582 9.63672 50.0508 9.77344 50.457 10.0469C50.8633 10.3203 51.1699 10.707 51.377 11.207C51.584 11.7031 51.6875 12.248 51.6875 12.8418C51.6875 13.4785 51.5723 14.0527 51.3418 14.5645C51.1152 15.0723 50.7832 15.4629 50.3457 15.7363C49.9121 16.0059 49.4551 16.1406 48.9746 16.1406C48.623 16.1406 48.3066 16.0664 48.0254 15.918C47.748 15.7695 47.5195 15.582 47.3398 15.3555V18.3848H46.2852ZM47.2402 12.9238C47.2402 13.7246 47.4023 14.3164 47.7266 14.6992C48.0508 15.082 48.4434 15.2734 48.9043 15.2734C49.373 15.2734 49.7734 15.0762 50.1055 14.6816C50.4414 14.2832 50.6094 13.668 50.6094 12.8359C50.6094 12.043 50.4453 11.4492 50.1172 11.0547C49.793 10.6602 49.4043 10.4629 48.9512 10.4629C48.502 10.4629 48.1035 10.6738 47.7559 11.0957C47.4121 11.5137 47.2402 12.123 47.2402 12.9238ZM57.2246 13.9961L58.3145 14.1309C58.1426 14.7676 57.8242 15.2617 57.3594 15.6133C56.8945 15.9648 56.3008 16.1406 55.5781 16.1406C54.668 16.1406 53.9453 15.8613 53.4102 15.3027C52.8789 14.7402 52.6133 13.9531 52.6133 12.9414C52.6133 11.8945 52.8828 11.082 53.4219 10.5039C53.9609 9.92578 54.6602 9.63672 55.5195 9.63672C56.3516 9.63672 57.0312 9.91992 57.5586 10.4863C58.0859 11.0527 58.3496 11.8496 58.3496 12.877C58.3496 12.9395 58.3477 13.0332 58.3438 13.1582H53.7031C53.7422 13.8418 53.9355 14.3652 54.2832 14.7285C54.6309 15.0918 55.0645 15.2734 55.584 15.2734C55.9707 15.2734 56.3008 15.1719 56.5742 14.9688C56.8477 14.7656 57.0645 14.4414 57.2246 13.9961ZM53.7617 12.291H57.2363C57.1895 11.7676 57.0566 11.375 56.8379 11.1133C56.502 10.707 56.0664 10.5039 55.5312 10.5039C55.0469 10.5039 54.6387 10.666 54.3066 10.9902C53.9785 11.3145 53.7969 11.748 53.7617 12.291ZM63.6816 16V15.2148C63.2871 15.832 62.707 16.1406 61.9414 16.1406C61.4453 16.1406 60.9883 16.0039 60.5703 15.7305C60.1562 15.457 59.834 15.0762 59.6035 14.5879C59.377 14.0957 59.2637 13.5312 59.2637 12.8945C59.2637 12.2734 59.3672 11.7109 59.5742 11.207C59.7812 10.6992 60.0918 10.3105 60.5059 10.041C60.9199 9.77148 61.3828 9.63672 61.8945 9.63672C62.2695 9.63672 62.6035 9.7168 62.8965 9.87695C63.1895 10.0332 63.4277 10.2383 63.6113 10.4922V7.41016H64.6602V16H63.6816ZM60.3477 12.8945C60.3477 13.6914 60.5156 14.2871 60.8516 14.6816C61.1875 15.0762 61.584 15.2734 62.041 15.2734C62.502 15.2734 62.8926 15.0859 63.2129 14.7109C63.5371 14.332 63.6992 13.7559 63.6992 12.9824C63.6992 12.1309 63.5352 11.5059 63.207 11.1074C62.8789 10.709 62.4746 10.5098 61.9941 10.5098C61.5254 10.5098 61.1328 10.7012 60.8164 11.084C60.5039 11.4668 60.3477 12.0703 60.3477 12.8945ZM69.916 16V10.5977H68.9844V9.77734H69.916V9.11523C69.916 8.69727 69.9531 8.38672 70.0273 8.18359C70.1289 7.91016 70.3066 7.68945 70.5605 7.52148C70.8184 7.34961 71.1777 7.26367 71.6387 7.26367C71.9355 7.26367 72.2637 7.29883 72.623 7.36914L72.4648 8.28906C72.2461 8.25 72.0391 8.23047 71.8438 8.23047C71.5234 8.23047 71.2969 8.29883 71.1641 8.43555C71.0312 8.57227 70.9648 8.82812 70.9648 9.20312V9.77734H72.1777V10.5977H70.9648V16H69.916ZM72.6113 12.8887C72.6113 11.7363 72.9316 10.8828 73.5723 10.3281C74.1074 9.86719 74.7598 9.63672 75.5293 9.63672C76.3848 9.63672 77.084 9.91797 77.627 10.4805C78.1699 11.0391 78.4414 11.8125 78.4414 12.8008C78.4414 13.6016 78.3203 14.2324 78.0781 14.6934C77.8398 15.1504 77.4902 15.5059 77.0293 15.7598C76.5723 16.0137 76.0723 16.1406 75.5293 16.1406C74.6582 16.1406 73.9531 15.8613 73.4141 15.3027C72.8789 14.7441 72.6113 13.9395 72.6113 12.8887ZM73.6953 12.8887C73.6953 13.6855 73.8691 14.2832 74.2168 14.6816C74.5645 15.0762 75.002 15.2734 75.5293 15.2734C76.0527 15.2734 76.4883 15.0742 76.8359 14.6758C77.1836 14.2773 77.3574 13.6699 77.3574 12.8535C77.3574 12.084 77.1816 11.502 76.8301 11.1074C76.4824 10.709 76.0488 10.5098 75.5293 10.5098C75.002 10.5098 74.5645 10.707 74.2168 11.1016C73.8691 11.4961 73.6953 12.0918 73.6953 12.8887ZM79.6719 16V9.77734H80.6211V10.7207C80.8633 10.2793 81.0859 9.98828 81.2891 9.84766C81.4961 9.70703 81.7227 9.63672 81.9688 9.63672C82.3242 9.63672 82.6855 9.75 83.0527 9.97656L82.6895 10.9551C82.4316 10.8027 82.1738 10.7266 81.916 10.7266C81.6855 10.7266 81.4785 10.7969 81.2949 10.9375C81.1113 11.0742 80.9805 11.2656 80.9023 11.5117C80.7852 11.8867 80.7266 12.2969 80.7266 12.7422V16H79.6719Z" fill="white"/>
<rect width="151" height="24" transform="translate(91)" fill="#8357FF"/>
<g clip-path="url(#clip1_49_22)">
<path d="M118.623 9.68C118.997 9.45 119.416 9.335 119.877 9.335C120.219 9.335 120.532 9.3925 120.826 9.505C121.117 9.62 121.368 9.7825 121.579 9.9975C121.787 10.2125 121.945 10.46 122.048 10.7475H123.456C123.335 10.235 123.107 9.7775 122.771 9.38C122.434 8.9825 122.018 8.6725 121.516 8.455C121.014 8.235 120.464 8.125 119.867 8.125C119.152 8.125 118.505 8.2925 117.925 8.63C117.348 8.9675 116.891 9.43 116.56 10.02C116.229 10.61 116.063 11.27 116.063 11.9975C116.063 12.725 116.229 13.385 116.56 13.975C116.891 14.565 117.345 15.03 117.925 15.365C118.505 15.7 119.15 15.87 119.867 15.87C120.464 15.87 121.014 15.76 121.516 15.54C122.018 15.32 122.434 15.0125 122.771 14.615C123.107 14.2175 123.333 13.7625 123.456 13.2475H122.048C121.945 13.5325 121.787 13.7825 121.579 13.9975C121.37 14.2125 121.119 14.375 120.826 14.49C120.535 14.605 120.219 14.66 119.877 14.66C119.416 14.66 118.997 14.545 118.623 14.315C118.249 14.085 117.955 13.7675 117.744 13.3625C117.534 12.9575 117.428 12.5025 117.428 11.995C117.428 11.4875 117.534 11.0325 117.744 10.6275C117.955 10.2225 118.249 9.905 118.623 9.675V9.68ZM128.467 10.5125C128.028 10.2625 127.536 10.1375 126.996 10.1375C126.457 10.1375 125.96 10.2625 125.516 10.5125C125.072 10.7625 124.728 11.105 124.477 11.5425C124.226 11.98 124.1 12.4675 124.1 13.005C124.1 13.5425 124.226 14.0325 124.479 14.4675C124.733 14.905 125.079 15.2475 125.518 15.4975C125.957 15.7475 126.449 15.8725 126.989 15.8725C127.528 15.8725 128.025 15.7475 128.467 15.4975C128.906 15.2475 129.255 14.905 129.505 14.4675C129.759 14.03 129.884 13.5425 129.884 13.005C129.884 12.4675 129.759 11.9775 129.505 11.5425C129.252 11.105 128.906 10.7625 128.467 10.5125ZM128.369 13.91C128.238 14.175 128.053 14.38 127.814 14.525C127.573 14.6725 127.3 14.745 126.994 14.745C126.688 14.745 126.412 14.6725 126.176 14.525C125.937 14.38 125.754 14.1725 125.624 13.91C125.493 13.645 125.428 13.345 125.428 13.005C125.428 12.665 125.493 12.36 125.624 12.095C125.754 11.83 125.94 11.625 126.176 11.48C126.412 11.335 126.688 11.26 126.994 11.26C127.3 11.26 127.573 11.335 127.812 11.4825C128.05 11.63 128.236 11.835 128.366 12.0975C128.497 12.36 128.564 12.6625 128.564 13.005C128.564 13.3475 128.499 13.645 128.369 13.91ZM138.155 10.4025C137.859 10.225 137.518 10.1375 137.126 10.1375C136.705 10.1375 136.336 10.2375 136.02 10.4375C135.734 10.62 135.51 10.8725 135.342 11.19C135.337 11.1775 135.332 11.165 135.327 11.1525C135.174 10.8275 134.953 10.5775 134.67 10.4C134.386 10.2225 134.047 10.135 133.658 10.135C133.269 10.135 132.916 10.2325 132.625 10.4275C132.379 10.5925 132.183 10.82 132.032 11.105V10.265H130.803V15.745H132.07V12.5675C132.07 12.3 132.118 12.0675 132.216 11.8675C132.313 11.6675 132.449 11.515 132.63 11.4075C132.808 11.3 133.018 11.2475 133.257 11.2475C133.478 11.2475 133.668 11.295 133.829 11.3925C133.99 11.49 134.11 11.625 134.195 11.805C134.278 11.9825 134.321 12.195 134.321 12.4425V15.75H135.56V12.5725C135.56 12.305 135.611 12.0725 135.708 11.8725C135.806 11.6725 135.947 11.52 136.128 11.4125C136.308 11.305 136.516 11.2525 136.752 11.2525C136.973 11.2525 137.164 11.3 137.322 11.3975C137.48 11.4925 137.6 11.63 137.683 11.81C137.769 11.9875 137.809 12.2 137.809 12.4475V15.755H139.076V12.2975C139.076 11.865 138.996 11.4875 138.838 11.1625C138.677 10.8375 138.451 10.5875 138.155 10.41V10.4025ZM144.719 10.505C144.335 10.26 143.896 10.1375 143.407 10.1375C142.955 10.1375 142.559 10.2375 142.215 10.4375C141.921 10.6075 141.688 10.8425 141.507 11.1325V10.265H140.268V17.455H141.535V14.92C141.713 15.19 141.937 15.41 142.215 15.57C142.556 15.77 142.955 15.87 143.409 15.87C143.896 15.87 144.333 15.7475 144.719 15.5025C145.106 15.2575 145.409 14.9175 145.628 14.48C145.846 14.0425 145.956 13.55 145.956 13C145.956 12.45 145.846 11.9575 145.628 11.52C145.409 11.0825 145.108 10.7425 144.722 10.4975L144.719 10.505ZM144.456 13.9125C144.325 14.175 144.142 14.38 143.906 14.5275C143.67 14.675 143.402 14.75 143.101 14.75C142.8 14.75 142.521 14.6775 142.285 14.53C142.049 14.3825 141.864 14.1775 141.733 13.915C141.603 13.6525 141.535 13.3475 141.535 13.005C141.535 12.6625 141.6 12.36 141.733 12.0975C141.866 11.835 142.049 11.63 142.285 11.4825C142.521 11.335 142.795 11.26 143.101 11.26C143.407 11.26 143.67 11.335 143.906 11.4825C144.142 11.63 144.325 11.835 144.456 12.0975C144.586 12.36 144.652 12.6625 144.652 13.005C144.652 13.3475 144.586 13.65 144.456 13.9125ZM150.952 10.5125C150.513 10.2625 150.021 10.1375 149.482 10.1375C148.942 10.1375 148.446 10.2625 148.001 10.5125C147.557 10.7625 147.214 11.105 146.963 11.5425C146.712 11.98 146.586 12.4675 146.586 13.005C146.586 13.5425 146.712 14.0325 146.965 14.4675C147.219 14.905 147.565 15.2475 148.004 15.4975C148.443 15.7475 148.935 15.8725 149.474 15.8725C150.014 15.8725 150.511 15.7475 150.952 15.4975C151.392 15.2475 151.74 14.905 151.991 14.4675C152.245 14.03 152.37 13.5425 152.37 13.005C152.37 12.4675 152.245 11.9775 151.991 11.5425C151.738 11.105 151.392 10.7625 150.952 10.5125ZM150.855 13.91C150.724 14.175 150.538 14.38 150.3 14.525C150.059 14.6725 149.786 14.745 149.479 14.745C149.173 14.745 148.897 14.6725 148.661 14.525C148.423 14.38 148.24 14.1725 148.109 13.91C147.979 13.645 147.914 13.345 147.914 13.005C147.914 12.665 147.979 12.36 148.109 12.095C148.24 11.83 148.426 11.625 148.661 11.48C148.897 11.335 149.173 11.26 149.479 11.26C149.786 11.26 150.059 11.335 150.297 11.4825C150.536 11.63 150.722 11.835 150.852 12.0975C150.983 12.36 151.05 12.6625 151.05 13.005C151.05 13.3475 150.985 13.645 150.855 13.91ZM156.912 12.8175C156.694 12.665 156.44 12.5625 156.149 12.5125L154.94 12.305C154.799 12.28 154.684 12.245 154.593 12.1975C154.503 12.1525 154.433 12.0925 154.388 12.02C154.342 11.9475 154.317 11.865 154.317 11.7675C154.317 11.64 154.355 11.525 154.43 11.425C154.506 11.325 154.611 11.2475 154.749 11.1925C154.887 11.1375 155.045 11.11 155.223 11.11C155.401 11.11 155.552 11.14 155.692 11.195C155.833 11.2525 155.948 11.3325 156.036 11.4325C156.124 11.535 156.179 11.655 156.199 11.795H157.462C157.436 11.46 157.326 11.1675 157.13 10.9175C156.935 10.6675 156.671 10.475 156.34 10.34C156.009 10.205 155.635 10.1375 155.221 10.1375C154.807 10.1375 154.425 10.21 154.102 10.355C153.778 10.5 153.527 10.7 153.351 10.955C153.176 11.21 153.088 11.5 153.088 11.825C153.088 12.09 153.148 12.3325 153.268 12.5525C153.389 12.7725 153.557 12.9575 153.775 13.105C153.994 13.2525 154.25 13.35 154.543 13.3975L155.763 13.6C155.878 13.6175 155.979 13.655 156.066 13.71C156.154 13.765 156.222 13.835 156.27 13.915C156.317 13.9975 156.342 14.0875 156.342 14.1875C156.342 14.3225 156.3 14.4425 156.212 14.5425C156.124 14.645 156.001 14.7225 155.843 14.78C155.685 14.8375 155.509 14.865 155.311 14.865C155.1 14.865 154.915 14.8375 154.757 14.7825C154.596 14.7275 154.468 14.6475 154.37 14.545C154.272 14.4425 154.214 14.3175 154.194 14.17H152.927C152.95 14.505 153.065 14.8025 153.274 15.06C153.482 15.3175 153.765 15.5175 154.119 15.66C154.473 15.8 154.872 15.8725 155.316 15.8725C155.76 15.8725 156.122 15.8 156.468 15.6525C156.814 15.5075 157.085 15.3 157.283 15.035C157.482 14.77 157.582 14.47 157.582 14.14C157.582 13.8725 157.524 13.625 157.406 13.3925C157.291 13.1625 157.123 12.97 156.904 12.8175H156.912ZM162.478 10.5C162.056 10.2575 161.574 10.135 161.032 10.135C160.49 10.135 160.021 10.26 159.584 10.5075C159.15 10.755 158.806 11.0975 158.556 11.5325C158.305 11.9675 158.179 12.455 158.179 12.9925C158.179 13.53 158.305 14.035 158.553 14.475C158.801 14.915 159.143 15.255 159.574 15.5025C160.006 15.7475 160.493 15.8725 161.032 15.8725C161.459 15.8725 161.848 15.8075 162.197 15.675C162.548 15.5425 162.846 15.355 163.092 15.1125C163.338 14.87 163.526 14.58 163.657 14.24H162.277C162.136 14.425 161.963 14.57 161.75 14.6725C161.537 14.775 161.301 14.8275 161.035 14.8275C160.734 14.8275 160.465 14.755 160.227 14.6075C159.988 14.4625 159.803 14.2575 159.667 13.995C159.559 13.7875 159.497 13.555 159.471 13.3025H163.81V12.9975C163.81 12.44 163.692 11.945 163.459 11.5125C163.225 11.08 162.897 10.7425 162.473 10.4975L162.478 10.5ZM159.499 12.46C159.532 12.28 159.584 12.11 159.667 11.955C159.803 11.7 159.988 11.5 160.227 11.355C160.465 11.21 160.734 11.1375 161.035 11.1375C161.336 11.1375 161.602 11.2125 161.833 11.3625C162.064 11.5125 162.242 11.72 162.367 11.985C162.437 12.1325 162.485 12.29 162.515 12.4575H159.499V12.46ZM172.322 13.6525L172.199 14.07L172.076 13.6525L169.772 8.255H168.058V15.745H169.378V10.4275L169.363 10.1825L171.684 15.7475H172.673L174.999 10.145L174.989 10.4275V15.745H176.309V8.255H174.575L172.324 13.6525H172.322ZM181.267 13.4325C181.267 13.69 181.217 13.9225 181.112 14.125C181.006 14.3275 180.856 14.4825 180.662 14.595C180.469 14.7075 180.246 14.7625 179.997 14.7625C179.762 14.7625 179.561 14.7125 179.393 14.615C179.225 14.5175 179.099 14.375 179.009 14.19C178.918 14.005 178.873 13.78 178.873 13.515V10.2625H177.611V13.7075C177.611 14.1575 177.694 14.545 177.857 14.8675C178.02 15.19 178.254 15.44 178.55 15.61C178.846 15.78 179.192 15.8675 179.586 15.8675C180.008 15.8675 180.376 15.77 180.69 15.5725C180.943 15.415 181.147 15.1975 181.305 14.9325V15.74H182.534V10.26H181.267V13.4325ZM183.771 15.745H185.039V8.255H183.771V15.745ZM187.985 8.9275H186.803V9.815C186.803 9.9475 186.76 10.055 186.68 10.1375C186.597 10.22 186.489 10.2625 186.351 10.2625H185.749L185.744 11.36H186.71L186.715 14.2875C186.715 14.565 186.78 14.815 186.911 15.0375C187.041 15.2575 187.224 15.4325 187.458 15.5575C187.691 15.6825 187.957 15.745 188.251 15.745H189.437V14.6475H188.504C188.353 14.6475 188.228 14.5975 188.13 14.5C188.032 14.4025 187.982 14.2775 187.982 14.1275L187.977 11.36H189.437L189.442 10.2625H187.982V8.925L187.985 8.9275ZM190.133 9.6875H191.578V8.435H190.133V9.6875ZM190.223 15.745H191.49V10.265H190.223V15.745ZM197.174 10.505C196.79 10.26 196.351 10.1375 195.861 10.1375C195.41 10.1375 195.013 10.2375 194.669 10.4375C194.376 10.6075 194.142 10.8425 193.962 11.1325V10.265H192.722V17.455H193.989V14.92C194.167 15.19 194.391 15.41 194.669 15.57C195.011 15.77 195.41 15.87 195.864 15.87C196.351 15.87 196.787 15.7475 197.174 15.5025C197.56 15.2575 197.864 14.9175 198.082 14.48C198.3 14.0425 198.408 13.55 198.408 13C198.408 12.45 198.3 11.9575 198.082 11.52C197.864 11.0825 197.563 10.7425 197.176 10.4975L197.174 10.505ZM196.91 13.9125C196.78 14.175 196.596 14.38 196.361 14.5275C196.125 14.675 195.856 14.75 195.555 14.75C195.254 14.75 194.975 14.6775 194.74 14.53C194.504 14.385 194.318 14.1775 194.188 13.915C194.055 13.65 193.989 13.3475 193.989 13.005C193.989 12.6625 194.055 12.36 194.188 12.0975C194.321 11.835 194.504 11.63 194.74 11.4825C194.975 11.335 195.249 11.26 195.555 11.26C195.861 11.26 196.125 11.335 196.361 11.4825C196.596 11.63 196.78 11.835 196.91 12.0975C197.041 12.36 197.106 12.6625 197.106 13.005C197.106 13.3475 197.041 13.65 196.91 13.9125ZM199.357 15.745H200.624V8.255H199.357V15.745ZM205.246 10.3725C204.912 10.215 204.523 10.1375 204.074 10.1375C203.625 10.1375 203.261 10.2125 202.927 10.36C202.594 10.5075 202.325 10.7125 202.127 10.97C201.929 11.2275 201.808 11.52 201.771 11.845H203.023C203.04 11.7175 203.093 11.6025 203.181 11.5C203.269 11.3975 203.387 11.3175 203.537 11.2575C203.688 11.1975 203.861 11.1675 204.059 11.1675C204.257 11.1675 204.433 11.2 204.581 11.2675C204.727 11.3325 204.839 11.4275 204.92 11.55C204.998 11.6725 205.038 11.8175 205.038 11.985V12.095C205.023 12.1675 205 12.23 204.962 12.275C204.905 12.3475 204.827 12.3875 204.732 12.3975L203.372 12.5525C203.028 12.5875 202.719 12.6875 202.448 12.85C202.177 13.0125 201.964 13.2175 201.808 13.4675C201.655 13.7175 201.577 13.9925 201.577 14.2925C201.577 14.5925 201.658 14.8675 201.816 15.1075C201.974 15.3475 202.195 15.5375 202.473 15.6725C202.752 15.8075 203.07 15.875 203.424 15.875C203.821 15.875 204.162 15.7875 204.448 15.615C204.701 15.46 204.9 15.2425 205.048 14.965V15.7475H206.3V12.115C206.3 11.7125 206.207 11.36 206.024 11.06C205.841 10.76 205.58 10.5325 205.249 10.375L205.246 10.3725ZM205.038 13.695C205.038 13.935 204.988 14.1425 204.887 14.325C204.787 14.505 204.644 14.645 204.458 14.7425C204.272 14.84 204.059 14.89 203.818 14.89C203.633 14.89 203.467 14.86 203.324 14.8C203.181 14.74 203.07 14.6525 202.99 14.5375C202.912 14.4225 202.872 14.2925 202.872 14.1475C202.872 14.0025 202.907 13.875 202.975 13.76C203.043 13.645 203.138 13.55 203.259 13.475C203.379 13.4 203.52 13.355 203.678 13.335L205.038 13.1775V13.7V13.695ZM209.113 8.9275H207.931V9.815C207.931 9.9475 207.891 10.055 207.808 10.1375C207.725 10.22 207.617 10.2625 207.479 10.2625H206.877L206.872 11.36H207.838L207.843 14.2875C207.843 14.565 207.908 14.815 208.039 15.0375C208.169 15.26 208.353 15.4325 208.586 15.5575C208.819 15.6825 209.085 15.745 209.379 15.745H210.566V14.6475H209.632C209.482 14.6475 209.359 14.5975 209.258 14.5C209.158 14.4025 209.11 14.2775 209.11 14.1275L209.105 11.36H210.566L210.571 10.2625H209.11V8.925L209.113 8.9275ZM212.849 8.4275C212.618 8.5425 212.438 8.705 212.31 8.915C212.182 9.1225 212.116 9.365 212.116 9.64V10.265H211.145V11.3625H212.116V15.745H213.384V11.3625H214.824V10.265H213.384V9.7575C213.384 9.6125 213.431 9.4925 213.524 9.4025C213.617 9.3125 213.737 9.265 213.883 9.265H214.862V8.255H213.647C213.346 8.255 213.08 8.3125 212.849 8.43V8.4275ZM219.471 10.5125C219.032 10.2625 218.54 10.1375 218.001 10.1375C217.461 10.1375 216.964 10.2625 216.52 10.5125C216.079 10.7625 215.732 11.105 215.481 11.5425C215.23 11.98 215.105 12.4675 215.105 13.005C215.105 13.5425 215.23 14.0325 215.484 14.4675C215.737 14.905 216.084 15.2475 216.523 15.4975C216.962 15.7475 217.454 15.8725 217.993 15.8725C218.533 15.8725 219.03 15.7475 219.469 15.4975C219.908 15.2475 220.257 14.905 220.508 14.4675C220.761 14.03 220.886 13.5425 220.886 13.005C220.886 12.4675 220.761 11.9775 220.508 11.5425C220.254 11.105 219.908 10.7625 219.469 10.5125H219.471ZM219.373 13.91C219.243 14.175 219.057 14.38 218.819 14.525C218.578 14.6725 218.304 14.745 217.998 14.745C217.692 14.745 217.416 14.6725 217.18 14.525C216.942 14.38 216.759 14.1725 216.628 13.91C216.498 13.6475 216.432 13.345 216.432 13.005C216.432 12.665 216.498 12.36 216.628 12.095C216.759 11.83 216.944 11.625 217.18 11.48C217.419 11.335 217.692 11.26 217.998 11.26C218.304 11.26 218.578 11.335 218.816 11.4825C219.055 11.63 219.24 11.835 219.371 12.0975C219.504 12.36 219.569 12.6625 219.569 13.005C219.569 13.3475 219.504 13.645 219.373 13.91ZM223.586 10.53C223.378 10.6725 223.202 10.8625 223.059 11.095V10.265H221.802V15.745H223.07V12.7875C223.07 12.5225 223.125 12.295 223.238 12.1025C223.351 11.91 223.511 11.7625 223.722 11.6575C223.93 11.555 224.179 11.5025 224.46 11.5025H224.813V10.23H224.61C224.221 10.23 223.877 10.33 223.584 10.5325L223.586 10.53ZM233.573 11.155C233.413 10.83 233.187 10.58 232.891 10.4025C232.595 10.225 232.254 10.1375 231.862 10.1375C231.441 10.1375 231.072 10.2375 230.755 10.4375C230.469 10.62 230.246 10.8725 230.078 11.19C230.073 11.1775 230.068 11.165 230.063 11.1525C229.91 10.8275 229.689 10.5775 229.405 10.4C229.122 10.2225 228.783 10.135 228.394 10.135C228.005 10.135 227.651 10.2325 227.36 10.4275C227.114 10.5925 226.919 10.82 226.766 11.105V10.265H225.536V15.745H226.803V12.5675C226.803 12.3 226.851 12.0675 226.949 11.8675C227.047 11.6675 227.182 11.515 227.363 11.4075C227.541 11.3 227.752 11.2475 227.99 11.2475C228.211 11.2475 228.402 11.295 228.562 11.3925C228.723 11.49 228.843 11.625 228.929 11.805C229.012 11.9825 229.054 12.195 229.054 12.4425V15.75H230.294V12.5725C230.294 12.305 230.344 12.0725 230.442 11.8725C230.54 11.6725 230.68 11.52 230.861 11.4125C231.042 11.305 231.25 11.2525 231.486 11.2525C231.706 11.2525 231.897 11.3 232.055 11.3975C232.213 11.4925 232.334 11.63 232.417 11.81C232.499 11.9875 232.542 12.2 232.542 12.4475V15.755H233.809V12.2975C233.809 11.865 233.729 11.4875 233.571 11.1625L233.573 11.155Z" fill="white"/>
<path d="M102.889 10.625L105.273 9.25L107.657 10.625L111.358 8.5L105.273 5L99.1882 8.5L102.889 10.625Z" fill="white"/>
<path d="M105.273 14.75L102.889 13.375V10.625L99.1882 8.5V15.5L105.273 19V14.75Z" fill="white"/>
<path d="M107.657 10.625V13.375L105.273 14.75V19L111.358 15.5V8.5L107.657 10.625Z" fill="white"/>
</g>
</g>
<defs>
<clipPath id="clip0_49_22">
<rect width="242" height="24" rx="4" fill="white"/>
</clipPath>
<clipPath id="clip1_49_22">
<rect width="135" height="14" fill="white" transform="translate(99 5)"/>
</clipPath>
</defs>
</svg>
