<svg width="216" height="24" viewBox="0 0 216 24" fill="none" xmlns="http://www.w3.org/2000/svg">
<g clip-path="url(#clip0_49_22)">
<rect width="216" height="24" rx="4" fill="#2D2D2D"/>
<rect width="85" height="0" transform="translate(0 12)" fill="#262626"/>
<path d="M14.8906 11.0977C14.8906 11.7539 14.8066 12.3281 14.6387 12.8203C14.4707 13.3086 14.2246 13.7148 13.9004 14.0391C13.5801 14.3594 13.1855 14.5996 12.7168 14.7598C12.248 14.9199 11.6895 15 11.041 15H9.43555C9.3457 15 9.25977 14.9707 9.17773 14.9121C9.09961 14.8496 9.06055 14.7422 9.06055 14.5898V7.82812C9.06055 7.67578 9.09961 7.57031 9.17773 7.51172C9.25977 7.44922 9.3457 7.41797 9.43555 7.41797H11.1523C11.8086 7.41797 12.3633 7.50391 12.8164 7.67578C13.2695 7.84375 13.6484 8.08789 13.9531 8.4082C14.2617 8.72461 14.4941 9.10938 14.6504 9.5625C14.8105 10.0156 14.8906 10.5273 14.8906 11.0977ZM13.8301 11.1387C13.8301 10.7285 13.7793 10.3477 13.6777 9.99609C13.5762 9.64062 13.416 9.33398 13.1973 9.07617C12.9824 8.81836 12.709 8.61719 12.377 8.47266C12.0449 8.32812 11.6172 8.25586 11.0938 8.25586H10.0684V14.1562H11.1055C11.5898 14.1562 11.998 14.0957 12.3301 13.9746C12.6621 13.8535 12.9395 13.668 13.1621 13.418C13.3848 13.168 13.5508 12.8555 13.6602 12.4805C13.7734 12.1016 13.8301 11.6543 13.8301 11.1387ZM20.832 11.9883C20.832 12.1406 20.793 12.25 20.7148 12.3164C20.6406 12.3789 20.5547 12.4102 20.457 12.4102H17C17 12.7031 17.0293 12.9668 17.0879 13.2012C17.1465 13.4355 17.2441 13.6367 17.3809 13.8047C17.5176 13.9727 17.6953 14.1016 17.9141 14.1914C18.1328 14.2812 18.4004 14.3262 18.7168 14.3262C18.9668 14.3262 19.1895 14.3066 19.3848 14.2676C19.5801 14.2246 19.748 14.1777 19.8887 14.127C20.0332 14.0762 20.1504 14.0312 20.2402 13.9922C20.334 13.9492 20.4043 13.9277 20.4512 13.9277C20.4785 13.9277 20.502 13.9355 20.5215 13.9512C20.5449 13.9629 20.5625 13.9824 20.5742 14.0098C20.5859 14.0371 20.5938 14.0762 20.5977 14.127C20.6055 14.1738 20.6094 14.2324 20.6094 14.3027C20.6094 14.3535 20.6074 14.3984 20.6035 14.4375C20.5996 14.4727 20.5938 14.5059 20.5859 14.5371C20.582 14.5645 20.5723 14.5898 20.5566 14.6133C20.5449 14.6367 20.5273 14.6602 20.5039 14.6836C20.4844 14.7031 20.4219 14.7383 20.3164 14.7891C20.2109 14.8359 20.0742 14.8828 19.9062 14.9297C19.7383 14.9766 19.543 15.0176 19.3203 15.0527C19.1016 15.0918 18.8672 15.1113 18.6172 15.1113C18.1836 15.1113 17.8027 15.0508 17.4746 14.9297C17.1504 14.8086 16.877 14.6289 16.6543 14.3906C16.4316 14.1523 16.2637 13.8535 16.1504 13.4941C16.0371 13.1348 15.9805 12.7168 15.9805 12.2402C15.9805 11.7871 16.0391 11.3809 16.1562 11.0215C16.2734 10.6582 16.4414 10.3516 16.6602 10.1016C16.8828 9.84766 17.1504 9.6543 17.4629 9.52148C17.7754 9.38477 18.125 9.31641 18.5117 9.31641C18.9258 9.31641 19.2773 9.38281 19.5664 9.51562C19.8594 9.64844 20.0996 9.82812 20.2871 10.0547C20.4746 10.2773 20.6113 10.541 20.6973 10.8457C20.7871 11.1465 20.832 11.4688 20.832 11.8125V11.9883ZM19.8594 11.7012C19.8711 11.1934 19.7578 10.7949 19.5195 10.5059C19.2852 10.2168 18.9355 10.0723 18.4707 10.0723C18.2324 10.0723 18.0234 10.1172 17.8438 10.207C17.6641 10.2969 17.5137 10.416 17.3926 10.5645C17.2715 10.7129 17.1777 10.8867 17.1113 11.0859C17.0449 11.2812 17.0078 11.4863 17 11.7012H19.8594ZM26.5742 9.56836C26.5742 9.58398 26.5723 9.60156 26.5684 9.62109C26.5684 9.63672 26.5664 9.6543 26.5625 9.67383C26.5586 9.69336 26.5527 9.71484 26.5449 9.73828C26.541 9.76172 26.5352 9.78711 26.5273 9.81445L24.7285 14.8242C24.7129 14.8672 24.6914 14.9023 24.6641 14.9297C24.6406 14.957 24.6035 14.9785 24.5527 14.9941C24.502 15.0098 24.4375 15.0195 24.3594 15.0234C24.2812 15.0312 24.1836 15.0352 24.0664 15.0352C23.9492 15.0352 23.8516 15.0312 23.7734 15.0234C23.6953 15.0156 23.6309 15.0039 23.5801 14.9883C23.5332 14.9727 23.4961 14.9512 23.4688 14.9238C23.4414 14.8965 23.4199 14.8633 23.4043 14.8242L21.6113 9.81445C21.5957 9.76758 21.582 9.72656 21.5703 9.69141C21.5625 9.65625 21.5566 9.63086 21.5527 9.61523C21.5527 9.5957 21.5527 9.58008 21.5527 9.56836C21.5527 9.53711 21.5605 9.50977 21.5762 9.48633C21.5918 9.46289 21.6172 9.44531 21.6523 9.43359C21.6914 9.41797 21.7402 9.4082 21.7988 9.4043C21.8613 9.40039 21.9375 9.39844 22.0273 9.39844C22.1406 9.39844 22.2305 9.40234 22.2969 9.41016C22.3672 9.41406 22.4199 9.42383 22.4551 9.43945C22.4941 9.45508 22.5215 9.47461 22.5371 9.49805C22.5566 9.52148 22.5742 9.55078 22.5898 9.58594L24.0781 13.9336L24.1016 14.0039L24.1191 13.9336L25.5898 9.58594C25.5977 9.55078 25.6113 9.52148 25.6309 9.49805C25.6504 9.47461 25.6777 9.45508 25.7129 9.43945C25.752 9.42383 25.8027 9.41406 25.8652 9.41016C25.9316 9.40234 26.0176 9.39844 26.123 9.39844C26.2129 9.39844 26.2871 9.40039 26.3457 9.4043C26.4043 9.4082 26.4492 9.41797 26.4805 9.43359C26.5156 9.44922 26.5391 9.46875 26.5508 9.49219C26.5664 9.51172 26.5742 9.53711 26.5742 9.56836ZM32.0586 11.9883C32.0586 12.1406 32.0195 12.25 31.9414 12.3164C31.8672 12.3789 31.7812 12.4102 31.6836 12.4102H28.2266C28.2266 12.7031 28.2559 12.9668 28.3145 13.2012C28.373 13.4355 28.4707 13.6367 28.6074 13.8047C28.7441 13.9727 28.9219 14.1016 29.1406 14.1914C29.3594 14.2812 29.627 14.3262 29.9434 14.3262C30.1934 14.3262 30.416 14.3066 30.6113 14.2676C30.8066 14.2246 30.9746 14.1777 31.1152 14.127C31.2598 14.0762 31.377 14.0312 31.4668 13.9922C31.5605 13.9492 31.6309 13.9277 31.6777 13.9277C31.7051 13.9277 31.7285 13.9355 31.748 13.9512C31.7715 13.9629 31.7891 13.9824 31.8008 14.0098C31.8125 14.0371 31.8203 14.0762 31.8242 14.127C31.832 14.1738 31.8359 14.2324 31.8359 14.3027C31.8359 14.3535 31.834 14.3984 31.8301 14.4375C31.8262 14.4727 31.8203 14.5059 31.8125 14.5371C31.8086 14.5645 31.7988 14.5898 31.7832 14.6133C31.7715 14.6367 31.7539 14.6602 31.7305 14.6836C31.7109 14.7031 31.6484 14.7383 31.543 14.7891C31.4375 14.8359 31.3008 14.8828 31.1328 14.9297C30.9648 14.9766 30.7695 15.0176 30.5469 15.0527C30.3281 15.0918 30.0938 15.1113 29.8438 15.1113C29.4102 15.1113 29.0293 15.0508 28.7012 14.9297C28.377 14.8086 28.1035 14.6289 27.8809 14.3906C27.6582 14.1523 27.4902 13.8535 27.377 13.4941C27.2637 13.1348 27.207 12.7168 27.207 12.2402C27.207 11.7871 27.2656 11.3809 27.3828 11.0215C27.5 10.6582 27.668 10.3516 27.8867 10.1016C28.1094 9.84766 28.377 9.6543 28.6895 9.52148C29.002 9.38477 29.3516 9.31641 29.7383 9.31641C30.1523 9.31641 30.5039 9.38281 30.793 9.51562C31.0859 9.64844 31.3262 9.82812 31.5137 10.0547C31.7012 10.2773 31.8379 10.541 31.9238 10.8457C32.0137 11.1465 32.0586 11.4688 32.0586 11.8125V11.9883ZM31.0859 11.7012C31.0977 11.1934 30.9844 10.7949 30.7461 10.5059C30.5117 10.2168 30.1621 10.0723 29.6973 10.0723C29.459 10.0723 29.25 10.1172 29.0703 10.207C28.8906 10.2969 28.7402 10.416 28.6191 10.5645C28.498 10.7129 28.4043 10.8867 28.3379 11.0859C28.2715 11.2812 28.2344 11.4863 28.2266 11.7012H31.0859ZM34.502 14.8535C34.502 14.8848 34.4941 14.9121 34.4785 14.9355C34.4629 14.9551 34.4375 14.9727 34.4023 14.9883C34.3672 15.0039 34.3184 15.0156 34.2559 15.0234C34.1934 15.0312 34.1133 15.0352 34.0156 15.0352C33.9219 15.0352 33.8438 15.0312 33.7812 15.0234C33.7188 15.0156 33.668 15.0039 33.6289 14.9883C33.5938 14.9727 33.5684 14.9551 33.5527 14.9355C33.541 14.9121 33.5352 14.8848 33.5352 14.8535V7.02539C33.5352 6.99414 33.541 6.9668 33.5527 6.94336C33.5684 6.91992 33.5938 6.90039 33.6289 6.88477C33.668 6.86914 33.7188 6.85742 33.7812 6.84961C33.8438 6.8418 33.9219 6.83789 34.0156 6.83789C34.1133 6.83789 34.1934 6.8418 34.2559 6.84961C34.3184 6.85742 34.3672 6.86914 34.4023 6.88477C34.4375 6.90039 34.4629 6.91992 34.4785 6.94336C34.4941 6.9668 34.502 6.99414 34.502 7.02539V14.8535ZM41.1934 12.1582C41.1934 12.5879 41.1367 12.9844 41.0234 13.3477C40.9102 13.707 40.7402 14.0176 40.5137 14.2793C40.291 14.541 40.0098 14.7461 39.6699 14.8945C39.334 15.0391 38.9434 15.1113 38.498 15.1113C38.0645 15.1113 37.6855 15.0469 37.3613 14.918C37.041 14.7891 36.7734 14.6016 36.5586 14.3555C36.3438 14.1094 36.1836 13.8105 36.0781 13.459C35.9727 13.1074 35.9199 12.709 35.9199 12.2637C35.9199 11.834 35.9746 11.4395 36.084 11.0801C36.1973 10.7168 36.3652 10.4043 36.5879 10.1426C36.8145 9.88086 37.0957 9.67773 37.4316 9.5332C37.7676 9.38867 38.1602 9.31641 38.6094 9.31641C39.043 9.31641 39.4199 9.38086 39.7402 9.50977C40.0645 9.63867 40.334 9.82617 40.5488 10.0723C40.7637 10.3184 40.9238 10.6172 41.0293 10.9688C41.1387 11.3203 41.1934 11.7168 41.1934 12.1582ZM40.1738 12.2227C40.1738 11.9375 40.1465 11.668 40.0918 11.4141C40.041 11.1602 39.9551 10.9375 39.834 10.7461C39.7129 10.5547 39.5488 10.4043 39.3418 10.2949C39.1348 10.1816 38.877 10.125 38.5684 10.125C38.2832 10.125 38.0371 10.1758 37.8301 10.2773C37.627 10.3789 37.459 10.5234 37.3262 10.7109C37.1934 10.8945 37.0938 11.1133 37.0273 11.3672C36.9648 11.6211 36.9336 11.8984 36.9336 12.1992C36.9336 12.4883 36.959 12.7598 37.0098 13.0137C37.0645 13.2676 37.1523 13.4902 37.2734 13.6816C37.3984 13.8691 37.5645 14.0195 37.7715 14.1328C37.9785 14.2422 38.2363 14.2969 38.5449 14.2969C38.8262 14.2969 39.0703 14.2461 39.2773 14.1445C39.4844 14.043 39.6543 13.9004 39.7871 13.7168C39.9199 13.5332 40.0176 13.3145 40.0801 13.0605C40.1426 12.8066 40.1738 12.5273 40.1738 12.2227ZM47.4688 12.1348C47.4688 12.5957 47.418 13.0098 47.3164 13.377C47.2188 13.7441 47.0723 14.0566 46.877 14.3145C46.6855 14.5684 46.4473 14.7656 46.1621 14.9062C45.877 15.043 45.5508 15.1113 45.1836 15.1113C45.0273 15.1113 44.8828 15.0957 44.75 15.0645C44.6172 15.0332 44.4863 14.9844 44.3574 14.918C44.2324 14.8516 44.1074 14.7676 43.9824 14.666C43.8574 14.5645 43.7246 14.4453 43.584 14.3086V16.9453C43.584 16.9766 43.5762 17.0039 43.5605 17.0273C43.5449 17.0508 43.5195 17.0703 43.4844 17.0859C43.4492 17.1016 43.4004 17.1133 43.3379 17.1211C43.2754 17.1289 43.1953 17.1328 43.0977 17.1328C43.0039 17.1328 42.9258 17.1289 42.8633 17.1211C42.8008 17.1133 42.75 17.1016 42.7109 17.0859C42.6758 17.0703 42.6504 17.0508 42.6348 17.0273C42.623 17.0039 42.6172 16.9766 42.6172 16.9453V9.58008C42.6172 9.54492 42.623 9.51758 42.6348 9.49805C42.6465 9.47461 42.6699 9.45508 42.7051 9.43945C42.7402 9.42383 42.7852 9.41406 42.8398 9.41016C42.8945 9.40234 42.9609 9.39844 43.0391 9.39844C43.1211 9.39844 43.1875 9.40234 43.2383 9.41016C43.293 9.41406 43.3379 9.42383 43.373 9.43945C43.4082 9.45508 43.4316 9.47461 43.4434 9.49805C43.459 9.51758 43.4668 9.54492 43.4668 9.58008V10.2891C43.627 10.125 43.7812 9.98242 43.9297 9.86133C44.0781 9.74023 44.2266 9.64062 44.375 9.5625C44.5273 9.48047 44.6816 9.41992 44.8379 9.38086C44.998 9.33789 45.166 9.31641 45.3418 9.31641C45.7246 9.31641 46.0508 9.39062 46.3203 9.53906C46.5898 9.6875 46.8086 9.89062 46.9766 10.1484C47.1484 10.4062 47.2734 10.707 47.3516 11.0508C47.4297 11.3906 47.4688 11.752 47.4688 12.1348ZM46.4492 12.2461C46.4492 11.9766 46.4277 11.7168 46.3848 11.4668C46.3457 11.2129 46.2754 10.9883 46.1738 10.793C46.0762 10.5977 45.9434 10.4414 45.7754 10.3242C45.6074 10.207 45.3984 10.1484 45.1484 10.1484C45.0234 10.1484 44.9004 10.168 44.7793 10.207C44.6582 10.2422 44.5352 10.3008 44.4102 10.3828C44.2852 10.4609 44.1543 10.5664 44.0176 10.6992C43.8809 10.8281 43.7363 10.9883 43.584 11.1797V13.2773C43.8496 13.6016 44.1016 13.8496 44.3398 14.0215C44.5781 14.1934 44.8281 14.2793 45.0898 14.2793C45.332 14.2793 45.5391 14.2207 45.7109 14.1035C45.8867 13.9863 46.0273 13.8301 46.1328 13.6348C46.2422 13.4395 46.3223 13.2207 46.373 12.9785C46.4238 12.7363 46.4492 12.4922 46.4492 12.2461ZM53.4219 11.9883C53.4219 12.1406 53.3828 12.25 53.3047 12.3164C53.2305 12.3789 53.1445 12.4102 53.0469 12.4102H49.5898C49.5898 12.7031 49.6191 12.9668 49.6777 13.2012C49.7363 13.4355 49.834 13.6367 49.9707 13.8047C50.1074 13.9727 50.2852 14.1016 50.5039 14.1914C50.7227 14.2812 50.9902 14.3262 51.3066 14.3262C51.5566 14.3262 51.7793 14.3066 51.9746 14.2676C52.1699 14.2246 52.3379 14.1777 52.4785 14.127C52.623 14.0762 52.7402 14.0312 52.8301 13.9922C52.9238 13.9492 52.9941 13.9277 53.041 13.9277C53.0684 13.9277 53.0918 13.9355 53.1113 13.9512C53.1348 13.9629 53.1523 13.9824 53.1641 14.0098C53.1758 14.0371 53.1836 14.0762 53.1875 14.127C53.1953 14.1738 53.1992 14.2324 53.1992 14.3027C53.1992 14.3535 53.1973 14.3984 53.1934 14.4375C53.1895 14.4727 53.1836 14.5059 53.1758 14.5371C53.1719 14.5645 53.1621 14.5898 53.1465 14.6133C53.1348 14.6367 53.1172 14.6602 53.0938 14.6836C53.0742 14.7031 53.0117 14.7383 52.9062 14.7891C52.8008 14.8359 52.6641 14.8828 52.4961 14.9297C52.3281 14.9766 52.1328 15.0176 51.9102 15.0527C51.6914 15.0918 51.457 15.1113 51.207 15.1113C50.7734 15.1113 50.3926 15.0508 50.0645 14.9297C49.7402 14.8086 49.4668 14.6289 49.2441 14.3906C49.0215 14.1523 48.8535 13.8535 48.7402 13.4941C48.627 13.1348 48.5703 12.7168 48.5703 12.2402C48.5703 11.7871 48.6289 11.3809 48.7461 11.0215C48.8633 10.6582 49.0312 10.3516 49.25 10.1016C49.4727 9.84766 49.7402 9.6543 50.0527 9.52148C50.3652 9.38477 50.7148 9.31641 51.1016 9.31641C51.5156 9.31641 51.8672 9.38281 52.1562 9.51562C52.4492 9.64844 52.6895 9.82812 52.877 10.0547C53.0645 10.2773 53.2012 10.541 53.2871 10.8457C53.377 11.1465 53.4219 11.4688 53.4219 11.8125V11.9883ZM52.4492 11.7012C52.4609 11.1934 52.3477 10.7949 52.1094 10.5059C51.875 10.2168 51.5254 10.0723 51.0605 10.0723C50.8223 10.0723 50.6133 10.1172 50.4336 10.207C50.2539 10.2969 50.1035 10.416 49.9824 10.5645C49.8613 10.7129 49.7676 10.8867 49.7012 11.0859C49.6348 11.2812 49.5977 11.4863 49.5898 11.7012H52.4492ZM59.416 14.8535C59.416 14.8848 59.4082 14.9121 59.3926 14.9355C59.3809 14.959 59.3574 14.9785 59.3223 14.9941C59.291 15.0059 59.248 15.0156 59.1934 15.0234C59.1387 15.0312 59.0723 15.0352 58.9941 15.0352C58.9121 15.0352 58.8438 15.0312 58.7891 15.0234C58.7344 15.0156 58.6895 15.0059 58.6543 14.9941C58.6191 14.9785 58.5938 14.959 58.5781 14.9355C58.5625 14.9121 58.5547 14.8848 58.5547 14.8535V14.1562C58.2773 14.457 57.9883 14.6914 57.6875 14.8594C57.3906 15.0273 57.0645 15.1113 56.709 15.1113C56.3223 15.1113 55.9922 15.0371 55.7188 14.8887C55.4453 14.7363 55.2227 14.5332 55.0508 14.2793C54.8828 14.0215 54.7598 13.7207 54.6816 13.377C54.6035 13.0293 54.5645 12.6641 54.5645 12.2812C54.5645 11.8281 54.6133 11.4199 54.7109 11.0566C54.8086 10.6895 54.9531 10.377 55.1445 10.1191C55.3359 9.86133 55.5723 9.66406 55.8535 9.52734C56.1387 9.38672 56.4668 9.31641 56.8379 9.31641C57.1465 9.31641 57.4277 9.38477 57.6816 9.52148C57.9395 9.6543 58.1934 9.85156 58.4434 10.1133V7.04883C58.4434 7.02148 58.4492 6.99609 58.4609 6.97266C58.4766 6.94531 58.5039 6.92578 58.543 6.91406C58.582 6.89844 58.6309 6.88672 58.6895 6.87891C58.752 6.86719 58.8301 6.86133 58.9238 6.86133C59.0215 6.86133 59.1016 6.86719 59.1641 6.87891C59.2266 6.88672 59.2754 6.89844 59.3105 6.91406C59.3457 6.92578 59.3711 6.94531 59.3867 6.97266C59.4062 6.99609 59.416 7.02148 59.416 7.04883V14.8535ZM58.4434 11.1445C58.1816 10.8203 57.9277 10.5742 57.6816 10.4062C57.4395 10.2344 57.1855 10.1484 56.9199 10.1484C56.6738 10.1484 56.4648 10.207 56.293 10.3242C56.1211 10.4414 55.9805 10.5957 55.8711 10.7871C55.7656 10.9785 55.6875 11.1953 55.6367 11.4375C55.5898 11.6797 55.5664 11.9258 55.5664 12.1758C55.5664 12.4414 55.5859 12.7012 55.625 12.9551C55.668 13.209 55.7402 13.4355 55.8418 13.6348C55.9434 13.8301 56.0781 13.9883 56.2461 14.1094C56.4141 14.2266 56.625 14.2852 56.8789 14.2852C57.0078 14.2852 57.1309 14.2676 57.248 14.2324C57.3691 14.1973 57.4922 14.1387 57.6172 14.0566C57.7422 13.9746 57.873 13.8691 58.0098 13.7402C58.1465 13.6074 58.291 13.4453 58.4434 13.2539V11.1445ZM66.8105 7.41211C66.8105 7.48633 66.8066 7.54688 66.7988 7.59375C66.791 7.63672 66.7812 7.67188 66.7695 7.69922C66.7617 7.72656 66.75 7.74609 66.7344 7.75781C66.7188 7.76562 66.6992 7.76953 66.6758 7.76953C66.6484 7.76953 66.6133 7.76172 66.5703 7.74609C66.5312 7.72656 66.4824 7.70703 66.4238 7.6875C66.3652 7.66406 66.2949 7.64453 66.2129 7.62891C66.1348 7.60938 66.043 7.59961 65.9375 7.59961C65.793 7.59961 65.6699 7.62305 65.5684 7.66992C65.4668 7.7168 65.3848 7.79102 65.3223 7.89258C65.2598 7.99023 65.2148 8.11914 65.1875 8.2793C65.1602 8.43555 65.1465 8.62695 65.1465 8.85352V9.42773H66.3242C66.3555 9.42773 66.3809 9.43555 66.4004 9.45117C66.4238 9.46289 66.4434 9.48633 66.459 9.52148C66.4785 9.55273 66.4922 9.59375 66.5 9.64453C66.5117 9.69531 66.5176 9.75781 66.5176 9.83203C66.5176 9.97266 66.5 10.0742 66.4648 10.1367C66.4297 10.1992 66.3828 10.2305 66.3242 10.2305H65.1465V14.8535C65.1465 14.8848 65.1387 14.9121 65.123 14.9355C65.1074 14.9551 65.0801 14.9727 65.041 14.9883C65.0059 15.0039 64.957 15.0156 64.8945 15.0234C64.832 15.0312 64.7539 15.0352 64.6602 15.0352C64.5664 15.0352 64.4883 15.0312 64.4258 15.0234C64.3633 15.0156 64.3125 15.0039 64.2734 14.9883C64.2383 14.9727 64.2129 14.9551 64.1973 14.9355C64.1816 14.9121 64.1738 14.8848 64.1738 14.8535V10.2305H63.4297C63.3672 10.2305 63.3203 10.1992 63.2891 10.1367C63.2578 10.0742 63.2422 9.97266 63.2422 9.83203C63.2422 9.75781 63.2461 9.69531 63.2539 9.64453C63.2617 9.59375 63.2734 9.55273 63.2891 9.52148C63.3047 9.48633 63.3242 9.46289 63.3477 9.45117C63.3711 9.43555 63.3984 9.42773 63.4297 9.42773H64.1738V8.88281C64.1738 8.51562 64.207 8.20117 64.2734 7.93945C64.3438 7.67383 64.4492 7.45703 64.5898 7.28906C64.7305 7.12109 64.9062 6.99805 65.1172 6.91992C65.332 6.83789 65.584 6.79688 65.873 6.79688C66.0098 6.79688 66.1426 6.81055 66.2715 6.83789C66.4004 6.86133 66.5 6.88867 66.5703 6.91992C66.6406 6.94727 66.6875 6.97266 66.7109 6.99609C66.7344 7.01953 66.7539 7.05078 66.7695 7.08984C66.7852 7.125 66.7949 7.16992 66.7988 7.22461C66.8066 7.27539 66.8105 7.33789 66.8105 7.41211ZM72.2363 12.1582C72.2363 12.5879 72.1797 12.9844 72.0664 13.3477C71.9531 13.707 71.7832 14.0176 71.5566 14.2793C71.334 14.541 71.0527 14.7461 70.7129 14.8945C70.377 15.0391 69.9863 15.1113 69.541 15.1113C69.1074 15.1113 68.7285 15.0469 68.4043 14.918C68.084 14.7891 67.8164 14.6016 67.6016 14.3555C67.3867 14.1094 67.2266 13.8105 67.1211 13.459C67.0156 13.1074 66.9629 12.709 66.9629 12.2637C66.9629 11.834 67.0176 11.4395 67.127 11.0801C67.2402 10.7168 67.4082 10.4043 67.6309 10.1426C67.8574 9.88086 68.1387 9.67773 68.4746 9.5332C68.8105 9.38867 69.2031 9.31641 69.6523 9.31641C70.0859 9.31641 70.4629 9.38086 70.7832 9.50977C71.1074 9.63867 71.377 9.82617 71.5918 10.0723C71.8066 10.3184 71.9668 10.6172 72.0723 10.9688C72.1816 11.3203 72.2363 11.7168 72.2363 12.1582ZM71.2168 12.2227C71.2168 11.9375 71.1895 11.668 71.1348 11.4141C71.084 11.1602 70.998 10.9375 70.877 10.7461C70.7559 10.5547 70.5918 10.4043 70.3848 10.2949C70.1777 10.1816 69.9199 10.125 69.6113 10.125C69.3262 10.125 69.0801 10.1758 68.873 10.2773C68.6699 10.3789 68.502 10.5234 68.3691 10.7109C68.2363 10.8945 68.1367 11.1133 68.0703 11.3672C68.0078 11.6211 67.9766 11.8984 67.9766 12.1992C67.9766 12.4883 68.002 12.7598 68.0527 13.0137C68.1074 13.2676 68.1953 13.4902 68.3164 13.6816C68.4414 13.8691 68.6074 14.0195 68.8145 14.1328C69.0215 14.2422 69.2793 14.2969 69.5879 14.2969C69.8691 14.2969 70.1133 14.2461 70.3203 14.1445C70.5273 14.043 70.6973 13.9004 70.8301 13.7168C70.9629 13.5332 71.0605 13.3145 71.123 13.0605C71.1855 12.8066 71.2168 12.5273 71.2168 12.2227ZM76.7422 9.92578C76.7422 10.0117 76.7402 10.084 76.7363 10.1426C76.7324 10.2012 76.7246 10.248 76.7129 10.2832C76.7012 10.3145 76.6855 10.3398 76.666 10.3594C76.6504 10.375 76.627 10.3828 76.5957 10.3828C76.5645 10.3828 76.5254 10.375 76.4785 10.3594C76.4355 10.3398 76.3848 10.3223 76.3262 10.3066C76.2715 10.2871 76.209 10.2695 76.1387 10.2539C76.0684 10.2383 75.9922 10.2305 75.9102 10.2305C75.8125 10.2305 75.7168 10.25 75.623 10.2891C75.5293 10.3281 75.4297 10.3926 75.3242 10.4824C75.2227 10.5723 75.1152 10.6914 75.002 10.8398C74.8887 10.9883 74.7637 11.1699 74.627 11.3848V14.8535C74.627 14.8848 74.6191 14.9121 74.6035 14.9355C74.5879 14.9551 74.5625 14.9727 74.5273 14.9883C74.4922 15.0039 74.4434 15.0156 74.3809 15.0234C74.3184 15.0312 74.2383 15.0352 74.1406 15.0352C74.0469 15.0352 73.9688 15.0312 73.9062 15.0234C73.8438 15.0156 73.793 15.0039 73.7539 14.9883C73.7188 14.9727 73.6934 14.9551 73.6777 14.9355C73.666 14.9121 73.6602 14.8848 73.6602 14.8535V9.58008C73.6602 9.54883 73.666 9.52344 73.6777 9.50391C73.6895 9.48047 73.7129 9.46094 73.748 9.44531C73.7832 9.42578 73.8281 9.41406 73.8828 9.41016C73.9375 9.40234 74.0098 9.39844 74.0996 9.39844C74.1855 9.39844 74.2559 9.40234 74.3105 9.41016C74.3691 9.41406 74.4141 9.42578 74.4453 9.44531C74.4766 9.46094 74.498 9.48047 74.5098 9.50391C74.5254 9.52344 74.5332 9.54883 74.5332 9.58008V10.3477C74.6777 10.1367 74.8125 9.96484 74.9375 9.83203C75.0664 9.69922 75.1875 9.5957 75.3008 9.52148C75.4141 9.44336 75.5254 9.39062 75.6348 9.36328C75.748 9.33203 75.8613 9.31641 75.9746 9.31641C76.0254 9.31641 76.082 9.32031 76.1445 9.32812C76.2109 9.33203 76.2793 9.3418 76.3496 9.35742C76.4199 9.37305 76.4824 9.39062 76.5371 9.41016C76.5957 9.42969 76.6367 9.44922 76.6602 9.46875C76.6836 9.48828 76.6992 9.50781 76.707 9.52734C76.7148 9.54297 76.7207 9.56445 76.7246 9.5918C76.7324 9.61914 76.7363 9.66016 76.7363 9.71484C76.7402 9.76562 76.7422 9.83594 76.7422 9.92578Z" fill="white"/>
<rect width="131" height="24" transform="translate(85)" fill="#1D7FFF"/>
<g clip-path="url(#clip1_49_22)">
<path d="M109.716 10.0114C110.034 9.81429 110.391 9.71572 110.784 9.71572C111.075 9.71572 111.342 9.765 111.592 9.86143C111.84 9.96 112.054 10.0993 112.234 10.2836C112.411 10.4679 112.546 10.68 112.633 10.9264H113.833C113.73 10.4871 113.535 10.095 113.249 9.75429C112.963 9.41357 112.608 9.14786 112.18 8.96143C111.753 8.77286 111.285 8.67857 110.776 8.67857C110.167 8.67857 109.615 8.82215 109.121 9.11143C108.63 9.40072 108.241 9.79715 107.959 10.3029C107.676 10.8086 107.535 11.3743 107.535 11.9979C107.535 12.6214 107.676 13.1871 107.959 13.6929C108.241 14.1986 108.628 14.5971 109.121 14.8843C109.615 15.1714 110.164 15.3171 110.776 15.3171C111.285 15.3171 111.753 15.2229 112.18 15.0343C112.608 14.8457 112.963 14.5821 113.249 14.2414C113.535 13.9007 113.728 13.5107 113.833 13.0693H112.633C112.546 13.3136 112.411 13.5279 112.234 13.7121C112.056 13.8964 111.842 14.0357 111.592 14.1343C111.344 14.2329 111.075 14.28 110.784 14.28C110.391 14.28 110.034 14.1814 109.716 13.9843C109.397 13.7871 109.147 13.515 108.967 13.1679C108.788 12.8207 108.698 12.4307 108.698 11.9957C108.698 11.5607 108.788 11.1707 108.967 10.8236C109.147 10.4764 109.397 10.2043 109.716 10.0071V10.0114ZM118.101 10.725C117.727 10.5107 117.308 10.4036 116.849 10.4036C116.389 10.4036 115.966 10.5107 115.587 10.725C115.209 10.9393 114.916 11.2329 114.703 11.6079C114.489 11.9829 114.382 12.4007 114.382 12.8614C114.382 13.3221 114.489 13.7421 114.705 14.115C114.921 14.49 115.216 14.7836 115.59 14.9979C115.964 15.2121 116.383 15.3193 116.842 15.3193C117.302 15.3193 117.725 15.2121 118.101 14.9979C118.475 14.7836 118.772 14.49 118.986 14.115C119.202 13.74 119.309 13.3221 119.309 12.8614C119.309 12.4007 119.202 11.9807 118.986 11.6079C118.77 11.2329 118.475 10.9393 118.101 10.725ZM118.018 13.6371C117.907 13.8643 117.749 14.04 117.545 14.1643C117.34 14.2907 117.107 14.3529 116.846 14.3529C116.586 14.3529 116.351 14.2907 116.15 14.1643C115.947 14.04 115.791 13.8621 115.679 13.6371C115.568 13.41 115.513 13.1529 115.513 12.8614C115.513 12.57 115.568 12.3086 115.679 12.0814C115.791 11.8543 115.949 11.6786 116.15 11.5543C116.351 11.43 116.586 11.3657 116.846 11.3657C117.107 11.3657 117.34 11.43 117.543 11.5564C117.746 11.6829 117.905 11.8586 118.016 12.0836C118.127 12.3086 118.185 12.5679 118.185 12.8614C118.185 13.155 118.129 13.41 118.018 13.6371ZM126.354 10.6307C126.102 10.4786 125.811 10.4036 125.478 10.4036C125.119 10.4036 124.805 10.4893 124.535 10.6607C124.292 10.8171 124.101 11.0336 123.958 11.3057C123.954 11.295 123.95 11.2843 123.945 11.2736C123.815 10.995 123.627 10.7807 123.385 10.6286C123.144 10.4764 122.855 10.4014 122.524 10.4014C122.192 10.4014 121.891 10.485 121.643 10.6521C121.434 10.7936 121.267 10.9886 121.139 11.2329V10.5129H120.091V15.21H121.171V12.4864C121.171 12.2571 121.211 12.0579 121.295 11.8864C121.378 11.715 121.493 11.5843 121.647 11.4921C121.799 11.4 121.979 11.355 122.182 11.355C122.37 11.355 122.532 11.3957 122.669 11.4793C122.806 11.5629 122.909 11.6786 122.981 11.8329C123.052 11.985 123.088 12.1671 123.088 12.3793V15.2143H124.144V12.4907C124.144 12.2614 124.187 12.0621 124.27 11.8907C124.354 11.7193 124.473 11.5886 124.627 11.4964C124.781 11.4043 124.958 11.3593 125.159 11.3593C125.347 11.3593 125.51 11.4 125.645 11.4836C125.779 11.565 125.882 11.6829 125.952 11.8371C126.025 11.9893 126.059 12.1714 126.059 12.3836V15.2186H127.139V12.255C127.139 11.8843 127.07 11.5607 126.936 11.2821C126.799 11.0036 126.607 10.7893 126.354 10.6371V10.6307ZM131.946 10.7186C131.619 10.5086 131.245 10.4036 130.828 10.4036C130.443 10.4036 130.106 10.4893 129.813 10.6607C129.563 10.8064 129.364 11.0079 129.21 11.2564V10.5129H128.154V16.6757H129.234V14.5029C129.385 14.7343 129.576 14.9229 129.813 15.06C130.104 15.2314 130.443 15.3171 130.83 15.3171C131.245 15.3171 131.617 15.2121 131.946 15.0021C132.275 14.7921 132.534 14.5007 132.72 14.1257C132.906 13.7507 133 13.3286 133 12.8571C133 12.3857 132.906 11.9636 132.72 11.5886C132.534 11.2136 132.277 10.9221 131.948 10.7121L131.946 10.7186ZM131.722 13.6393C131.611 13.8643 131.454 14.04 131.254 14.1664C131.053 14.2929 130.824 14.3571 130.567 14.3571C130.311 14.3571 130.074 14.295 129.873 14.1686C129.672 14.0421 129.514 13.8664 129.402 13.6414C129.291 13.4164 129.234 13.155 129.234 12.8614C129.234 12.5679 129.289 12.3086 129.402 12.0836C129.516 11.8586 129.672 11.6829 129.873 11.5564C130.074 11.43 130.307 11.3657 130.567 11.3657C130.828 11.3657 131.053 11.43 131.254 11.5564C131.454 11.6829 131.611 11.8586 131.722 12.0836C131.833 12.3086 131.888 12.5679 131.888 12.8614C131.888 13.155 131.833 13.4143 131.722 13.6393ZM137.256 10.725C136.882 10.5107 136.463 10.4036 136.003 10.4036C135.544 10.4036 135.12 10.5107 134.742 10.725C134.364 10.9393 134.071 11.2329 133.857 11.6079C133.643 11.9829 133.536 12.4007 133.536 12.8614C133.536 13.3221 133.643 13.7421 133.859 14.115C134.075 14.49 134.37 14.7836 134.744 14.9979C135.118 15.2121 135.537 15.3193 135.997 15.3193C136.456 15.3193 136.88 15.2121 137.256 14.9979C137.63 14.7836 137.927 14.49 138.141 14.115C138.357 13.74 138.463 13.3221 138.463 12.8614C138.463 12.4007 138.357 11.9807 138.141 11.6079C137.925 11.2329 137.63 10.9393 137.256 10.725ZM137.172 13.6371C137.061 13.8643 136.903 14.04 136.7 14.1643C136.495 14.2907 136.262 14.3529 136.001 14.3529C135.74 14.3529 135.505 14.2907 135.304 14.1643C135.101 14.04 134.945 13.8621 134.834 13.6371C134.723 13.41 134.667 13.1529 134.667 12.8614C134.667 12.57 134.723 12.3086 134.834 12.0814C134.945 11.8543 135.103 11.6786 135.304 11.5543C135.505 11.43 135.74 11.3657 136.001 11.3657C136.262 11.3657 136.495 11.43 136.698 11.5564C136.901 11.6829 137.059 11.8586 137.17 12.0836C137.281 12.3086 137.339 12.5679 137.339 12.8614C137.339 13.155 137.284 13.41 137.172 13.6371ZM142.332 12.7007C142.146 12.57 141.931 12.4821 141.683 12.4393L140.652 12.2614C140.533 12.24 140.434 12.21 140.357 12.1693C140.28 12.1307 140.221 12.0793 140.182 12.0171C140.144 11.955 140.122 11.8843 140.122 11.8007C140.122 11.6914 140.154 11.5929 140.218 11.5071C140.283 11.4214 140.372 11.355 140.49 11.3079C140.607 11.2607 140.742 11.2371 140.894 11.2371C141.046 11.2371 141.174 11.2629 141.294 11.31C141.413 11.3593 141.512 11.4279 141.586 11.5136C141.661 11.6014 141.708 11.7043 141.725 11.8243H142.801C142.779 11.5371 142.685 11.2864 142.518 11.0721C142.352 10.8579 142.127 10.6929 141.845 10.5771C141.563 10.4614 141.244 10.4036 140.892 10.4036C140.539 10.4036 140.214 10.4657 139.938 10.59C139.663 10.7143 139.449 10.8857 139.299 11.1043C139.15 11.3229 139.075 11.5714 139.075 11.85C139.075 12.0771 139.126 12.285 139.229 12.4736C139.331 12.6621 139.475 12.8207 139.661 12.9471C139.846 13.0736 140.065 13.1571 140.315 13.1979L141.353 13.3714C141.452 13.3864 141.537 13.4186 141.612 13.4657C141.687 13.5129 141.745 13.5729 141.785 13.6414C141.826 13.7121 141.847 13.7893 141.847 13.875C141.847 13.9907 141.811 14.0936 141.736 14.1793C141.661 14.2671 141.557 14.3336 141.422 14.3829C141.287 14.4321 141.138 14.4557 140.969 14.4557C140.789 14.4557 140.631 14.4321 140.496 14.385C140.359 14.3379 140.25 14.2693 140.167 14.1814C140.084 14.0936 140.035 13.9864 140.017 13.86H138.938C138.957 14.1471 139.056 14.4021 139.233 14.6229C139.41 14.8436 139.652 15.015 139.953 15.1371C140.255 15.2571 140.595 15.3193 140.973 15.3193C141.351 15.3193 141.659 15.2571 141.954 15.1307C142.249 15.0064 142.48 14.8286 142.649 14.6014C142.818 14.3743 142.903 14.1171 142.903 13.8343C142.903 13.605 142.854 13.3929 142.754 13.1936C142.655 12.9964 142.512 12.8314 142.326 12.7007H142.332ZM147.074 10.7143C146.714 10.5064 146.304 10.4014 145.842 10.4014C145.381 10.4014 144.981 10.5086 144.609 10.7207C144.239 10.9329 143.946 11.2264 143.733 11.5993C143.519 11.9721 143.412 12.39 143.412 12.8507C143.412 13.3114 143.519 13.7443 143.73 14.1214C143.942 14.4986 144.233 14.79 144.6 15.0021C144.968 15.2121 145.383 15.3193 145.842 15.3193C146.206 15.3193 146.537 15.2636 146.834 15.15C147.133 15.0364 147.388 14.8757 147.597 14.6679C147.807 14.46 147.967 14.2114 148.078 13.92H146.903C146.783 14.0786 146.635 14.2029 146.454 14.2907C146.272 14.3786 146.071 14.4236 145.844 14.4236C145.588 14.4236 145.359 14.3614 145.156 14.235C144.953 14.1107 144.795 13.935 144.679 13.71C144.588 13.5321 144.534 13.3329 144.513 13.1164H148.209V12.855C148.209 12.3771 148.108 11.9529 147.909 11.5821C147.711 11.2114 147.43 10.9221 147.069 10.7121L147.074 10.7143ZM144.536 12.3943C144.564 12.24 144.609 12.0943 144.679 11.9614C144.795 11.7429 144.953 11.5714 145.156 11.4471C145.359 11.3229 145.588 11.2607 145.844 11.2607C146.101 11.2607 146.328 11.325 146.524 11.4536C146.721 11.5821 146.873 11.76 146.979 11.9871C147.039 12.1136 147.08 12.2486 147.106 12.3921H144.536V12.3943ZM155.459 13.4164L155.354 13.7743L155.25 13.4164L153.287 8.79H151.827V15.21H152.952V10.6521L152.939 10.4421L154.916 15.2121H155.758L157.74 10.41L157.731 10.6521V15.21H158.856V8.79H157.379L155.461 13.4164H155.459ZM163.079 13.2279C163.079 13.4486 163.037 13.6479 162.947 13.8214C162.857 13.995 162.729 14.1279 162.564 14.2243C162.4 14.3207 162.209 14.3679 161.998 14.3679C161.797 14.3679 161.626 14.325 161.483 14.2414C161.34 14.1579 161.233 14.0357 161.156 13.8771C161.079 13.7186 161.04 13.5257 161.04 13.2986V10.5107H159.965V13.4636C159.965 13.8493 160.036 14.1814 160.175 14.4579C160.313 14.7343 160.512 14.9486 160.764 15.0943C161.017 15.24 161.312 15.315 161.647 15.315C162.006 15.315 162.321 15.2314 162.588 15.0621C162.804 14.9271 162.977 14.7407 163.112 14.5136V15.2057H164.159V10.5086H163.079V13.2279ZM165.213 15.21H166.292V8.79H165.213V15.21ZM168.802 9.36643H167.795V10.1271C167.795 10.2407 167.759 10.3329 167.69 10.4036C167.62 10.4743 167.528 10.5107 167.41 10.5107H166.897L166.893 11.4514H167.716L167.72 13.9607C167.72 14.1986 167.776 14.4129 167.887 14.6036C167.998 14.7921 168.154 14.9421 168.353 15.0493C168.552 15.1564 168.778 15.21 169.028 15.21H170.039V14.2693H169.244C169.116 14.2693 169.009 14.2264 168.926 14.1429C168.842 14.0593 168.8 13.9521 168.8 13.8236L168.795 11.4514H170.039L170.044 10.5107H168.8V9.36429L168.802 9.36643ZM170.631 10.0179H171.863V8.94429H170.631V10.0179ZM170.708 15.21H171.788V10.5129H170.708V15.21ZM176.629 10.7186C176.302 10.5086 175.928 10.4036 175.511 10.4036C175.127 10.4036 174.789 10.4893 174.496 10.6607C174.246 10.8064 174.047 11.0079 173.893 11.2564V10.5129H172.837V16.6757H173.917V14.5029C174.069 14.7343 174.259 14.9229 174.496 15.06C174.787 15.2314 175.127 15.3171 175.514 15.3171C175.928 15.3171 176.3 15.2121 176.629 15.0021C176.959 14.7921 177.217 14.5007 177.403 14.1257C177.589 13.7507 177.681 13.3286 177.681 12.8571C177.681 12.3857 177.589 11.9636 177.403 11.5886C177.217 11.2136 176.961 10.9221 176.632 10.7121L176.629 10.7186ZM176.405 13.6393C176.294 13.8643 176.138 14.04 175.937 14.1664C175.736 14.2929 175.507 14.3571 175.251 14.3571C174.994 14.3571 174.757 14.295 174.556 14.1686C174.355 14.0443 174.197 13.8664 174.086 13.6414C173.972 13.4143 173.917 13.155 173.917 12.8614C173.917 12.5679 173.972 12.3086 174.086 12.0836C174.199 11.8586 174.355 11.6829 174.556 11.5564C174.757 11.43 174.99 11.3657 175.251 11.3657C175.511 11.3657 175.736 11.43 175.937 11.5564C176.138 11.6829 176.294 11.8586 176.405 12.0836C176.516 12.3086 176.572 12.5679 176.572 12.8614C176.572 13.155 176.516 13.4143 176.405 13.6393ZM178.489 15.21H179.568V8.79H178.489V15.21ZM183.506 10.605C183.222 10.47 182.89 10.4036 182.508 10.4036C182.125 10.4036 181.815 10.4679 181.531 10.5943C181.246 10.7207 181.018 10.8964 180.849 11.1171C180.68 11.3379 180.577 11.5886 180.545 11.8671H181.612C181.627 11.7579 181.672 11.6593 181.747 11.5714C181.821 11.4836 181.922 11.415 182.05 11.3636C182.178 11.3121 182.326 11.2864 182.495 11.2864C182.664 11.2864 182.813 11.3143 182.939 11.3721C183.063 11.4279 183.16 11.5093 183.228 11.6143C183.294 11.7193 183.328 11.8436 183.328 11.9871V12.0814C183.316 12.1436 183.296 12.1971 183.264 12.2357C183.215 12.2979 183.149 12.3321 183.068 12.3407L181.909 12.4736C181.616 12.5036 181.353 12.5893 181.122 12.7286C180.892 12.8679 180.71 13.0436 180.577 13.2579C180.447 13.4721 180.381 13.7079 180.381 13.965C180.381 14.2221 180.449 14.4579 180.584 14.6636C180.718 14.8693 180.907 15.0321 181.144 15.1479C181.381 15.2636 181.653 15.3214 181.954 15.3214C182.292 15.3214 182.582 15.2464 182.826 15.0986C183.042 14.9657 183.211 14.7793 183.337 14.5414V15.2121H184.404V12.0986C184.404 11.7536 184.325 11.4514 184.168 11.1943C184.012 10.9371 183.79 10.7421 183.508 10.6071L183.506 10.605ZM183.328 13.4529C183.328 13.6586 183.286 13.8364 183.2 13.9929C183.115 14.1471 182.993 14.2671 182.835 14.3507C182.676 14.4343 182.495 14.4771 182.29 14.4771C182.131 14.4771 181.99 14.4514 181.868 14.4C181.747 14.3486 181.653 14.2736 181.584 14.175C181.518 14.0764 181.484 13.965 181.484 13.8407C181.484 13.7164 181.514 13.6071 181.571 13.5086C181.629 13.41 181.71 13.3286 181.813 13.2643C181.916 13.2 182.035 13.1614 182.17 13.1443L183.328 13.0093V13.4571V13.4529ZM186.8 9.36643H185.793V10.1271C185.793 10.2407 185.759 10.3329 185.688 10.4036C185.618 10.4743 185.526 10.5107 185.408 10.5107H184.895L184.891 11.4514H185.714L185.718 13.9607C185.718 14.1986 185.774 14.4129 185.885 14.6036C185.996 14.7943 186.152 14.9421 186.351 15.0493C186.55 15.1564 186.776 15.21 187.026 15.21H188.037V14.2693H187.242C187.114 14.2693 187.009 14.2264 186.924 14.1429C186.838 14.0593 186.798 13.9521 186.798 13.8236L186.793 11.4514H188.037L188.042 10.5107H186.798V9.36429L186.8 9.36643ZM189.983 8.93786C189.786 9.03643 189.632 9.17572 189.523 9.35572C189.414 9.53357 189.358 9.74143 189.358 9.97714V10.5129H188.531V11.4536H189.358V15.21H190.438V11.4536H191.665V10.5129H190.438V10.0779C190.438 9.95357 190.479 9.85072 190.558 9.77357C190.637 9.69643 190.739 9.65572 190.863 9.65572H191.697V8.79H190.662C190.406 8.79 190.179 8.83929 189.983 8.94V8.93786ZM195.624 10.725C195.25 10.5107 194.831 10.4036 194.371 10.4036C193.911 10.4036 193.488 10.5107 193.11 10.725C192.734 10.9393 192.439 11.2329 192.225 11.6079C192.011 11.9829 191.904 12.4007 191.904 12.8614C191.904 13.3221 192.011 13.7421 192.227 14.115C192.443 14.49 192.738 14.7836 193.112 14.9979C193.486 15.2121 193.905 15.3193 194.365 15.3193C194.824 15.3193 195.247 15.2121 195.621 14.9979C195.996 14.7836 196.293 14.49 196.506 14.115C196.722 13.74 196.829 13.3221 196.829 12.8614C196.829 12.4007 196.722 11.9807 196.506 11.6079C196.291 11.2329 195.996 10.9393 195.621 10.725H195.624ZM195.54 13.6371C195.429 13.8643 195.271 14.04 195.068 14.1643C194.863 14.2907 194.63 14.3529 194.369 14.3529C194.108 14.3529 193.873 14.2907 193.672 14.1643C193.469 14.04 193.313 13.8621 193.202 13.6371C193.091 13.4121 193.035 13.1529 193.035 12.8614C193.035 12.57 193.091 12.3086 193.202 12.0814C193.313 11.8543 193.471 11.6786 193.672 11.5543C193.875 11.43 194.108 11.3657 194.369 11.3657C194.63 11.3657 194.863 11.43 195.066 11.5564C195.269 11.6829 195.427 11.8586 195.538 12.0836C195.651 12.3086 195.707 12.5679 195.707 12.8614C195.707 13.155 195.651 13.41 195.54 13.6371ZM199.129 10.74C198.952 10.8621 198.802 11.025 198.68 11.2243V10.5129H197.609V15.21H198.689V12.675C198.689 12.4479 198.736 12.2529 198.832 12.0879C198.928 11.9229 199.065 11.7964 199.245 11.7064C199.422 11.6186 199.634 11.5736 199.873 11.5736H200.174V10.4829H200.001C199.67 10.4829 199.377 10.5686 199.127 10.7421L199.129 10.74ZM207.637 11.2757C207.5 10.9971 207.307 10.7829 207.055 10.6307C206.803 10.4786 206.512 10.4036 206.179 10.4036C205.82 10.4036 205.505 10.4893 205.236 10.6607C204.992 10.8171 204.802 11.0336 204.659 11.3057C204.655 11.295 204.65 11.2843 204.646 11.2736C204.516 10.995 204.328 10.7807 204.086 10.6286C203.845 10.4764 203.556 10.4014 203.225 10.4014C202.893 10.4014 202.592 10.485 202.344 10.6521C202.135 10.7936 201.968 10.9886 201.837 11.2329V10.5129H200.79V15.21H201.87V12.4864C201.87 12.2571 201.91 12.0579 201.993 11.8864C202.077 11.715 202.192 11.5843 202.346 11.4921C202.498 11.4 202.678 11.355 202.881 11.355C203.069 11.355 203.231 11.3957 203.368 11.4793C203.505 11.5629 203.607 11.6786 203.68 11.8329C203.751 11.985 203.787 12.1671 203.787 12.3793V15.2143H204.843V12.4907C204.843 12.2614 204.886 12.0621 204.969 11.8907C205.052 11.7193 205.172 11.5886 205.326 11.4964C205.48 11.4043 205.657 11.3593 205.858 11.3593C206.046 11.3593 206.209 11.4 206.343 11.4836C206.478 11.565 206.581 11.6829 206.651 11.8371C206.722 11.9893 206.758 12.1714 206.758 12.3836V15.2186H207.838V12.255C207.838 11.8843 207.769 11.5607 207.634 11.2821L207.637 11.2757Z" fill="white"/>
<path d="M96.3132 10.8214L98.3439 9.64286L100.375 10.8214L103.527 9L98.3439 6L93.1603 9L96.3132 10.8214Z" fill="white"/>
<path d="M98.3439 14.3571L96.3132 13.1786V10.8214L93.1603 9V15L98.3439 18V14.3571Z" fill="white"/>
<path d="M100.375 10.8214V13.1786L98.3439 14.3571V18L103.527 15V9L100.375 10.8214Z" fill="white"/>
</g>
</g>
<defs>
<clipPath id="clip0_49_22">
<rect width="216" height="24" rx="4" fill="white"/>
</clipPath>
<clipPath id="clip1_49_22">
<rect width="115" height="12" fill="white" transform="translate(93 6)"/>
</clipPath>
</defs>
</svg>
