<svg width="130" height="24" viewBox="0 0 130 24" fill="none" xmlns="http://www.w3.org/2000/svg">
<g clip-path="url(#clip0_50_40)">
<rect width="130" height="24" rx="4" fill="#2D2D2D"/>
<rect width="84" height="0" transform="translate(0 12)" fill="#262626"/>
<path d="M13.4355 14.5605C13.4355 14.6387 13.4316 14.7051 13.4238 14.7598C13.416 14.8105 13.4023 14.8555 13.3828 14.8945C13.3672 14.9297 13.3457 14.957 13.3184 14.9766C13.2949 14.9922 13.2656 15 13.2305 15H9.87891C9.78906 15 9.70312 14.9707 9.62109 14.9121C9.54297 14.8496 9.50391 14.7422 9.50391 14.5898V7.57031C9.50391 7.53906 9.51172 7.51172 9.52734 7.48828C9.54297 7.46484 9.57031 7.44727 9.60938 7.43555C9.64844 7.41992 9.70117 7.4082 9.76758 7.40039C9.83398 7.38867 9.91406 7.38281 10.0078 7.38281C10.1055 7.38281 10.1855 7.38867 10.248 7.40039C10.3145 7.4082 10.3672 7.41992 10.4062 7.43555C10.4453 7.44727 10.4727 7.46484 10.4883 7.48828C10.5039 7.51172 10.5117 7.53906 10.5117 7.57031V14.127H13.2305C13.2656 14.127 13.2949 14.1367 13.3184 14.1562C13.3457 14.1719 13.3672 14.1973 13.3828 14.2324C13.4023 14.2637 13.416 14.3066 13.4238 14.3613C13.4316 14.416 13.4355 14.4824 13.4355 14.5605ZM18.416 14.8594C18.416 14.9062 18.4004 14.9414 18.3691 14.9648C18.3379 14.9883 18.2949 15.0059 18.2402 15.0176C18.1855 15.0293 18.1055 15.0352 18 15.0352C17.8984 15.0352 17.8164 15.0293 17.7539 15.0176C17.6953 15.0059 17.6523 14.9883 17.625 14.9648C17.5977 14.9414 17.584 14.9062 17.584 14.8594V14.332C17.3535 14.5781 17.0957 14.7695 16.8105 14.9062C16.5293 15.043 16.2305 15.1113 15.9141 15.1113C15.6367 15.1113 15.3848 15.0742 15.1582 15C14.9355 14.9297 14.7441 14.8262 14.584 14.6895C14.4277 14.5527 14.3047 14.3848 14.2148 14.1855C14.1289 13.9863 14.0859 13.7598 14.0859 13.5059C14.0859 13.209 14.1465 12.9512 14.2676 12.7324C14.3887 12.5137 14.5625 12.332 14.7891 12.1875C15.0156 12.043 15.293 11.9355 15.6211 11.8652C15.9492 11.791 16.3184 11.7539 16.7285 11.7539H17.4551V11.3438C17.4551 11.1406 17.4336 10.9609 17.3906 10.8047C17.3477 10.6484 17.2773 10.5195 17.1797 10.418C17.0859 10.3125 16.9629 10.2344 16.8105 10.1836C16.6582 10.1289 16.4707 10.1016 16.248 10.1016C16.0098 10.1016 15.7949 10.1309 15.6035 10.1895C15.416 10.2441 15.25 10.3066 15.1055 10.377C14.9648 10.4434 14.8457 10.5059 14.748 10.5645C14.6543 10.6191 14.584 10.6465 14.5371 10.6465C14.5059 10.6465 14.4785 10.6387 14.4551 10.623C14.4316 10.6074 14.4102 10.584 14.3906 10.5527C14.375 10.5215 14.3633 10.4824 14.3555 10.4355C14.3477 10.3848 14.3438 10.3301 14.3438 10.2715C14.3438 10.1738 14.3496 10.0977 14.3613 10.043C14.377 9.98438 14.4102 9.92969 14.4609 9.87891C14.5156 9.82812 14.6074 9.76953 14.7363 9.70312C14.8652 9.63281 15.0137 9.57031 15.1816 9.51562C15.3496 9.45703 15.5332 9.41016 15.7324 9.375C15.9316 9.33594 16.1328 9.31641 16.3359 9.31641C16.7148 9.31641 17.0371 9.35938 17.3027 9.44531C17.5684 9.53125 17.7832 9.6582 17.9473 9.82617C18.1113 9.99023 18.2305 10.1953 18.3047 10.4414C18.3789 10.6875 18.416 10.9746 18.416 11.3027V14.8594ZM17.4551 12.4512H16.6289C16.3633 12.4512 16.1328 12.4746 15.9375 12.5215C15.7422 12.5645 15.5801 12.6309 15.4512 12.7207C15.3223 12.8066 15.2266 12.9121 15.1641 13.0371C15.1055 13.1582 15.0762 13.2988 15.0762 13.459C15.0762 13.7324 15.1621 13.9512 15.334 14.1152C15.5098 14.2754 15.7539 14.3555 16.0664 14.3555C16.3203 14.3555 16.5547 14.291 16.7695 14.1621C16.9883 14.0332 17.2168 13.8359 17.4551 13.5703V12.4512ZM22.8223 14.4668C22.8223 14.5801 22.8145 14.6699 22.7988 14.7363C22.7832 14.8027 22.7598 14.8516 22.7285 14.8828C22.6973 14.9141 22.6504 14.9434 22.5879 14.9707C22.5254 14.998 22.4531 15.0195 22.3711 15.0352C22.293 15.0547 22.209 15.0703 22.1191 15.082C22.0293 15.0938 21.9395 15.0996 21.8496 15.0996C21.5762 15.0996 21.3418 15.0645 21.1465 14.9941C20.9512 14.9199 20.791 14.8105 20.666 14.666C20.541 14.5176 20.4492 14.332 20.3906 14.1094C20.3359 13.8828 20.3086 13.6172 20.3086 13.3125V10.2305H19.5703C19.5117 10.2305 19.4648 10.1992 19.4297 10.1367C19.3945 10.0742 19.377 9.97266 19.377 9.83203C19.377 9.75781 19.3809 9.69531 19.3887 9.64453C19.4004 9.59375 19.4141 9.55273 19.4297 9.52148C19.4453 9.48633 19.4648 9.46289 19.4883 9.45117C19.5156 9.43555 19.5449 9.42773 19.5762 9.42773H20.3086V8.17383C20.3086 8.14648 20.3145 8.12109 20.3262 8.09766C20.3418 8.07422 20.3672 8.05469 20.4023 8.03906C20.4414 8.01953 20.4922 8.00586 20.5547 7.99805C20.6172 7.99023 20.6953 7.98633 20.7891 7.98633C20.8867 7.98633 20.9668 7.99023 21.0293 7.99805C21.0918 8.00586 21.1406 8.01953 21.1758 8.03906C21.2109 8.05469 21.2363 8.07422 21.252 8.09766C21.2676 8.12109 21.2754 8.14648 21.2754 8.17383V9.42773H22.6289C22.6602 9.42773 22.6875 9.43555 22.7109 9.45117C22.7344 9.46289 22.7539 9.48633 22.7695 9.52148C22.7891 9.55273 22.8027 9.59375 22.8105 9.64453C22.8184 9.69531 22.8223 9.75781 22.8223 9.83203C22.8223 9.97266 22.8047 10.0742 22.7695 10.1367C22.7344 10.1992 22.6875 10.2305 22.6289 10.2305H21.2754V13.1719C21.2754 13.5352 21.3281 13.8105 21.4336 13.998C21.543 14.1816 21.7363 14.2734 22.0137 14.2734C22.1035 14.2734 22.1836 14.2656 22.2539 14.25C22.3242 14.2305 22.3867 14.2109 22.4414 14.1914C22.4961 14.1719 22.543 14.1543 22.582 14.1387C22.6211 14.1191 22.6562 14.1094 22.6875 14.1094C22.707 14.1094 22.7246 14.1152 22.7402 14.127C22.7598 14.1348 22.7734 14.1523 22.7812 14.1797C22.793 14.207 22.8027 14.2441 22.8105 14.291C22.8184 14.3379 22.8223 14.3965 22.8223 14.4668ZM28.4707 11.9883C28.4707 12.1406 28.4316 12.25 28.3535 12.3164C28.2793 12.3789 28.1934 12.4102 28.0957 12.4102H24.6387C24.6387 12.7031 24.668 12.9668 24.7266 13.2012C24.7852 13.4355 24.8828 13.6367 25.0195 13.8047C25.1562 13.9727 25.334 14.1016 25.5527 14.1914C25.7715 14.2812 26.0391 14.3262 26.3555 14.3262C26.6055 14.3262 26.8281 14.3066 27.0234 14.2676C27.2188 14.2246 27.3867 14.1777 27.5273 14.127C27.6719 14.0762 27.7891 14.0312 27.8789 13.9922C27.9727 13.9492 28.043 13.9277 28.0898 13.9277C28.1172 13.9277 28.1406 13.9355 28.1602 13.9512C28.1836 13.9629 28.2012 13.9824 28.2129 14.0098C28.2246 14.0371 28.2324 14.0762 28.2363 14.127C28.2441 14.1738 28.248 14.2324 28.248 14.3027C28.248 14.3535 28.2461 14.3984 28.2422 14.4375C28.2383 14.4727 28.2324 14.5059 28.2246 14.5371C28.2207 14.5645 28.2109 14.5898 28.1953 14.6133C28.1836 14.6367 28.166 14.6602 28.1426 14.6836C28.123 14.7031 28.0605 14.7383 27.9551 14.7891C27.8496 14.8359 27.7129 14.8828 27.5449 14.9297C27.377 14.9766 27.1816 15.0176 26.959 15.0527C26.7402 15.0918 26.5059 15.1113 26.2559 15.1113C25.8223 15.1113 25.4414 15.0508 25.1133 14.9297C24.7891 14.8086 24.5156 14.6289 24.293 14.3906C24.0703 14.1523 23.9023 13.8535 23.7891 13.4941C23.6758 13.1348 23.6191 12.7168 23.6191 12.2402C23.6191 11.7871 23.6777 11.3809 23.7949 11.0215C23.9121 10.6582 24.0801 10.3516 24.2988 10.1016C24.5215 9.84766 24.7891 9.6543 25.1016 9.52148C25.4141 9.38477 25.7637 9.31641 26.1504 9.31641C26.5645 9.31641 26.916 9.38281 27.2051 9.51562C27.498 9.64844 27.7383 9.82812 27.9258 10.0547C28.1133 10.2773 28.25 10.541 28.3359 10.8457C28.4258 11.1465 28.4707 11.4688 28.4707 11.8125V11.9883ZM27.498 11.7012C27.5098 11.1934 27.3965 10.7949 27.1582 10.5059C26.9238 10.2168 26.5742 10.0723 26.1094 10.0723C25.8711 10.0723 25.6621 10.1172 25.4824 10.207C25.3027 10.2969 25.1523 10.416 25.0312 10.5645C24.9102 10.7129 24.8164 10.8867 24.75 11.0859C24.6836 11.2812 24.6465 11.4863 24.6387 11.7012H27.498ZM33.2578 13.418C33.2578 13.6875 33.207 13.9277 33.1055 14.1387C33.0078 14.3496 32.8672 14.5273 32.6836 14.6719C32.5 14.8164 32.2812 14.9258 32.0273 15C31.7734 15.0742 31.4941 15.1113 31.1895 15.1113C31.002 15.1113 30.8223 15.0957 30.6504 15.0645C30.4824 15.0371 30.3301 15.002 30.1934 14.959C30.0605 14.9121 29.9473 14.8652 29.8535 14.8184C29.7598 14.7676 29.6914 14.7227 29.6484 14.6836C29.6055 14.6445 29.5742 14.5898 29.5547 14.5195C29.5352 14.4492 29.5254 14.3535 29.5254 14.2324C29.5254 14.1582 29.5293 14.0957 29.5371 14.0449C29.5449 13.9941 29.5547 13.9531 29.5664 13.9219C29.5781 13.8906 29.5938 13.8691 29.6133 13.8574C29.6367 13.8418 29.6621 13.834 29.6895 13.834C29.7324 13.834 29.7949 13.8613 29.877 13.916C29.9629 13.9668 30.0664 14.0234 30.1875 14.0859C30.3125 14.1484 30.459 14.207 30.627 14.2617C30.7949 14.3125 30.9883 14.3379 31.207 14.3379C31.3711 14.3379 31.5195 14.3203 31.6523 14.2852C31.7852 14.25 31.9004 14.1992 31.998 14.1328C32.0957 14.0625 32.1699 13.9746 32.2207 13.8691C32.2754 13.7637 32.3027 13.6387 32.3027 13.4941C32.3027 13.3457 32.2637 13.2207 32.1855 13.1191C32.1113 13.0176 32.0117 12.9277 31.8867 12.8496C31.7617 12.7715 31.6211 12.7031 31.4648 12.6445C31.3086 12.582 31.1465 12.5176 30.9785 12.4512C30.8145 12.3848 30.6523 12.3105 30.4922 12.2285C30.3359 12.1426 30.1953 12.0391 30.0703 11.918C29.9453 11.7969 29.8438 11.6523 29.7656 11.4844C29.6914 11.3164 29.6543 11.1152 29.6543 10.8809C29.6543 10.6738 29.6934 10.4766 29.7715 10.2891C29.8535 10.0977 29.9746 9.93164 30.1348 9.79102C30.2949 9.64648 30.4941 9.53125 30.7324 9.44531C30.9746 9.35938 31.2559 9.31641 31.5762 9.31641C31.7168 9.31641 31.8574 9.32812 31.998 9.35156C32.1387 9.375 32.2656 9.4043 32.3789 9.43945C32.4922 9.47461 32.5879 9.51367 32.666 9.55664C32.748 9.5957 32.8086 9.63086 32.8477 9.66211C32.8906 9.69336 32.918 9.7207 32.9297 9.74414C32.9453 9.76758 32.9551 9.79492 32.959 9.82617C32.9668 9.85352 32.9727 9.88867 32.9766 9.93164C32.9844 9.97461 32.9883 10.0273 32.9883 10.0898C32.9883 10.1562 32.9844 10.2148 32.9766 10.2656C32.9727 10.3125 32.9629 10.3516 32.9473 10.3828C32.9355 10.4141 32.9199 10.4375 32.9004 10.4531C32.8809 10.4648 32.8594 10.4707 32.8359 10.4707C32.8008 10.4707 32.75 10.4492 32.6836 10.4062C32.6172 10.3633 32.5312 10.3184 32.4258 10.2715C32.3203 10.2207 32.1953 10.1738 32.0508 10.1309C31.9102 10.0879 31.748 10.0664 31.5645 10.0664C31.4004 10.0664 31.2559 10.0859 31.1309 10.125C31.0059 10.1602 30.9023 10.2129 30.8203 10.2832C30.7422 10.3496 30.6816 10.4297 30.6387 10.5234C30.5996 10.6172 30.5801 10.7188 30.5801 10.8281C30.5801 10.9805 30.6191 11.1094 30.6973 11.2148C30.7754 11.3164 30.877 11.4062 31.002 11.4844C31.127 11.5625 31.2695 11.6328 31.4297 11.6953C31.5898 11.7578 31.752 11.8223 31.916 11.8887C32.084 11.9551 32.248 12.0293 32.4082 12.1113C32.5723 12.1934 32.7168 12.293 32.8418 12.4102C32.9668 12.5273 33.0664 12.668 33.1406 12.832C33.2188 12.9961 33.2578 13.1914 33.2578 13.418ZM37.248 14.4668C37.248 14.5801 37.2402 14.6699 37.2246 14.7363C37.209 14.8027 37.1855 14.8516 37.1543 14.8828C37.123 14.9141 37.0762 14.9434 37.0137 14.9707C36.9512 14.998 36.8789 15.0195 36.7969 15.0352C36.7188 15.0547 36.6348 15.0703 36.5449 15.082C36.4551 15.0938 36.3652 15.0996 36.2754 15.0996C36.002 15.0996 35.7676 15.0645 35.5723 14.9941C35.377 14.9199 35.2168 14.8105 35.0918 14.666C34.9668 14.5176 34.875 14.332 34.8164 14.1094C34.7617 13.8828 34.7344 13.6172 34.7344 13.3125V10.2305H33.9961C33.9375 10.2305 33.8906 10.1992 33.8555 10.1367C33.8203 10.0742 33.8027 9.97266 33.8027 9.83203C33.8027 9.75781 33.8066 9.69531 33.8145 9.64453C33.8262 9.59375 33.8398 9.55273 33.8555 9.52148C33.8711 9.48633 33.8906 9.46289 33.9141 9.45117C33.9414 9.43555 33.9707 9.42773 34.002 9.42773H34.7344V8.17383C34.7344 8.14648 34.7402 8.12109 34.752 8.09766C34.7676 8.07422 34.793 8.05469 34.8281 8.03906C34.8672 8.01953 34.918 8.00586 34.9805 7.99805C35.043 7.99023 35.1211 7.98633 35.2148 7.98633C35.3125 7.98633 35.3926 7.99023 35.4551 7.99805C35.5176 8.00586 35.5664 8.01953 35.6016 8.03906C35.6367 8.05469 35.6621 8.07422 35.6777 8.09766C35.6934 8.12109 35.7012 8.14648 35.7012 8.17383V9.42773H37.0547C37.0859 9.42773 37.1133 9.43555 37.1367 9.45117C37.1602 9.46289 37.1797 9.48633 37.1953 9.52148C37.2148 9.55273 37.2285 9.59375 37.2363 9.64453C37.2441 9.69531 37.248 9.75781 37.248 9.83203C37.248 9.97266 37.2305 10.0742 37.1953 10.1367C37.1602 10.1992 37.1133 10.2305 37.0547 10.2305H35.7012V13.1719C35.7012 13.5352 35.7539 13.8105 35.8594 13.998C35.9688 14.1816 36.1621 14.2734 36.4395 14.2734C36.5293 14.2734 36.6094 14.2656 36.6797 14.25C36.75 14.2305 36.8125 14.2109 36.8672 14.1914C36.9219 14.1719 36.9688 14.1543 37.0078 14.1387C37.0469 14.1191 37.082 14.1094 37.1133 14.1094C37.1328 14.1094 37.1504 14.1152 37.166 14.127C37.1855 14.1348 37.1992 14.1523 37.207 14.1797C37.2188 14.207 37.2285 14.2441 37.2363 14.291C37.2441 14.3379 37.248 14.3965 37.248 14.4668ZM44.3262 9.92578C44.3262 10.0117 44.3242 10.084 44.3203 10.1426C44.3164 10.2012 44.3086 10.248 44.2969 10.2832C44.2852 10.3145 44.2695 10.3398 44.25 10.3594C44.2344 10.375 44.2109 10.3828 44.1797 10.3828C44.1484 10.3828 44.1094 10.375 44.0625 10.3594C44.0195 10.3398 43.9688 10.3223 43.9102 10.3066C43.8555 10.2871 43.793 10.2695 43.7227 10.2539C43.6523 10.2383 43.5762 10.2305 43.4941 10.2305C43.3965 10.2305 43.3008 10.25 43.207 10.2891C43.1133 10.3281 43.0137 10.3926 42.9082 10.4824C42.8066 10.5723 42.6992 10.6914 42.5859 10.8398C42.4727 10.9883 42.3477 11.1699 42.2109 11.3848V14.8535C42.2109 14.8848 42.2031 14.9121 42.1875 14.9355C42.1719 14.9551 42.1465 14.9727 42.1113 14.9883C42.0762 15.0039 42.0273 15.0156 41.9648 15.0234C41.9023 15.0312 41.8223 15.0352 41.7246 15.0352C41.6309 15.0352 41.5527 15.0312 41.4902 15.0234C41.4277 15.0156 41.377 15.0039 41.3379 14.9883C41.3027 14.9727 41.2773 14.9551 41.2617 14.9355C41.25 14.9121 41.2441 14.8848 41.2441 14.8535V9.58008C41.2441 9.54883 41.25 9.52344 41.2617 9.50391C41.2734 9.48047 41.2969 9.46094 41.332 9.44531C41.3672 9.42578 41.4121 9.41406 41.4668 9.41016C41.5215 9.40234 41.5938 9.39844 41.6836 9.39844C41.7695 9.39844 41.8398 9.40234 41.8945 9.41016C41.9531 9.41406 41.998 9.42578 42.0293 9.44531C42.0605 9.46094 42.082 9.48047 42.0938 9.50391C42.1094 9.52344 42.1172 9.54883 42.1172 9.58008V10.3477C42.2617 10.1367 42.3965 9.96484 42.5215 9.83203C42.6504 9.69922 42.7715 9.5957 42.8848 9.52148C42.998 9.44336 43.1094 9.39062 43.2188 9.36328C43.332 9.33203 43.4453 9.31641 43.5586 9.31641C43.6094 9.31641 43.666 9.32031 43.7285 9.32812C43.7949 9.33203 43.8633 9.3418 43.9336 9.35742C44.0039 9.37305 44.0664 9.39062 44.1211 9.41016C44.1797 9.42969 44.2207 9.44922 44.2441 9.46875C44.2676 9.48828 44.2832 9.50781 44.291 9.52734C44.2988 9.54297 44.3047 9.56445 44.3086 9.5918C44.3164 9.61914 44.3203 9.66016 44.3203 9.71484C44.3242 9.76562 44.3262 9.83594 44.3262 9.92578ZM49.7637 11.9883C49.7637 12.1406 49.7246 12.25 49.6465 12.3164C49.5723 12.3789 49.4863 12.4102 49.3887 12.4102H45.9316C45.9316 12.7031 45.9609 12.9668 46.0195 13.2012C46.0781 13.4355 46.1758 13.6367 46.3125 13.8047C46.4492 13.9727 46.627 14.1016 46.8457 14.1914C47.0645 14.2812 47.332 14.3262 47.6484 14.3262C47.8984 14.3262 48.1211 14.3066 48.3164 14.2676C48.5117 14.2246 48.6797 14.1777 48.8203 14.127C48.9648 14.0762 49.082 14.0312 49.1719 13.9922C49.2656 13.9492 49.3359 13.9277 49.3828 13.9277C49.4102 13.9277 49.4336 13.9355 49.4531 13.9512C49.4766 13.9629 49.4941 13.9824 49.5059 14.0098C49.5176 14.0371 49.5254 14.0762 49.5293 14.127C49.5371 14.1738 49.541 14.2324 49.541 14.3027C49.541 14.3535 49.5391 14.3984 49.5352 14.4375C49.5312 14.4727 49.5254 14.5059 49.5176 14.5371C49.5137 14.5645 49.5039 14.5898 49.4883 14.6133C49.4766 14.6367 49.459 14.6602 49.4355 14.6836C49.416 14.7031 49.3535 14.7383 49.248 14.7891C49.1426 14.8359 49.0059 14.8828 48.8379 14.9297C48.6699 14.9766 48.4746 15.0176 48.252 15.0527C48.0332 15.0918 47.7988 15.1113 47.5488 15.1113C47.1152 15.1113 46.7344 15.0508 46.4062 14.9297C46.082 14.8086 45.8086 14.6289 45.5859 14.3906C45.3633 14.1523 45.1953 13.8535 45.082 13.4941C44.9688 13.1348 44.9121 12.7168 44.9121 12.2402C44.9121 11.7871 44.9707 11.3809 45.0879 11.0215C45.2051 10.6582 45.373 10.3516 45.5918 10.1016C45.8145 9.84766 46.082 9.6543 46.3945 9.52148C46.707 9.38477 47.0566 9.31641 47.4434 9.31641C47.8574 9.31641 48.209 9.38281 48.498 9.51562C48.791 9.64844 49.0312 9.82812 49.2188 10.0547C49.4062 10.2773 49.543 10.541 49.6289 10.8457C49.7188 11.1465 49.7637 11.4688 49.7637 11.8125V11.9883ZM48.791 11.7012C48.8027 11.1934 48.6895 10.7949 48.4512 10.5059C48.2168 10.2168 47.8672 10.0723 47.4023 10.0723C47.1641 10.0723 46.9551 10.1172 46.7754 10.207C46.5957 10.2969 46.4453 10.416 46.3242 10.5645C46.2031 10.7129 46.1094 10.8867 46.043 11.0859C45.9766 11.2812 45.9395 11.4863 45.9316 11.7012H48.791ZM52.207 14.8535C52.207 14.8848 52.1992 14.9121 52.1836 14.9355C52.168 14.9551 52.1426 14.9727 52.1074 14.9883C52.0723 15.0039 52.0234 15.0156 51.9609 15.0234C51.8984 15.0312 51.8184 15.0352 51.7207 15.0352C51.627 15.0352 51.5488 15.0312 51.4863 15.0234C51.4238 15.0156 51.373 15.0039 51.334 14.9883C51.2988 14.9727 51.2734 14.9551 51.2578 14.9355C51.2461 14.9121 51.2402 14.8848 51.2402 14.8535V7.02539C51.2402 6.99414 51.2461 6.9668 51.2578 6.94336C51.2734 6.91992 51.2988 6.90039 51.334 6.88477C51.373 6.86914 51.4238 6.85742 51.4863 6.84961C51.5488 6.8418 51.627 6.83789 51.7207 6.83789C51.8184 6.83789 51.8984 6.8418 51.9609 6.84961C52.0234 6.85742 52.0723 6.86914 52.1074 6.88477C52.1426 6.90039 52.168 6.91992 52.1836 6.94336C52.1992 6.9668 52.207 6.99414 52.207 7.02539V14.8535ZM58.4941 11.9883C58.4941 12.1406 58.4551 12.25 58.377 12.3164C58.3027 12.3789 58.2168 12.4102 58.1191 12.4102H54.6621C54.6621 12.7031 54.6914 12.9668 54.75 13.2012C54.8086 13.4355 54.9062 13.6367 55.043 13.8047C55.1797 13.9727 55.3574 14.1016 55.5762 14.1914C55.7949 14.2812 56.0625 14.3262 56.3789 14.3262C56.6289 14.3262 56.8516 14.3066 57.0469 14.2676C57.2422 14.2246 57.4102 14.1777 57.5508 14.127C57.6953 14.0762 57.8125 14.0312 57.9023 13.9922C57.9961 13.9492 58.0664 13.9277 58.1133 13.9277C58.1406 13.9277 58.1641 13.9355 58.1836 13.9512C58.207 13.9629 58.2246 13.9824 58.2363 14.0098C58.248 14.0371 58.2559 14.0762 58.2598 14.127C58.2676 14.1738 58.2715 14.2324 58.2715 14.3027C58.2715 14.3535 58.2695 14.3984 58.2656 14.4375C58.2617 14.4727 58.2559 14.5059 58.248 14.5371C58.2441 14.5645 58.2344 14.5898 58.2188 14.6133C58.207 14.6367 58.1895 14.6602 58.166 14.6836C58.1465 14.7031 58.084 14.7383 57.9785 14.7891C57.873 14.8359 57.7363 14.8828 57.5684 14.9297C57.4004 14.9766 57.2051 15.0176 56.9824 15.0527C56.7637 15.0918 56.5293 15.1113 56.2793 15.1113C55.8457 15.1113 55.4648 15.0508 55.1367 14.9297C54.8125 14.8086 54.5391 14.6289 54.3164 14.3906C54.0938 14.1523 53.9258 13.8535 53.8125 13.4941C53.6992 13.1348 53.6426 12.7168 53.6426 12.2402C53.6426 11.7871 53.7012 11.3809 53.8184 11.0215C53.9355 10.6582 54.1035 10.3516 54.3223 10.1016C54.5449 9.84766 54.8125 9.6543 55.125 9.52148C55.4375 9.38477 55.7871 9.31641 56.1738 9.31641C56.5879 9.31641 56.9395 9.38281 57.2285 9.51562C57.5215 9.64844 57.7617 9.82812 57.9492 10.0547C58.1367 10.2773 58.2734 10.541 58.3594 10.8457C58.4492 11.1465 58.4941 11.4688 58.4941 11.8125V11.9883ZM57.5215 11.7012C57.5332 11.1934 57.4199 10.7949 57.1816 10.5059C56.9473 10.2168 56.5977 10.0723 56.1328 10.0723C55.8945 10.0723 55.6855 10.1172 55.5059 10.207C55.3262 10.2969 55.1758 10.416 55.0547 10.5645C54.9336 10.7129 54.8398 10.8867 54.7734 11.0859C54.707 11.2812 54.6699 11.4863 54.6621 11.7012H57.5215ZM63.9434 14.8594C63.9434 14.9062 63.9277 14.9414 63.8965 14.9648C63.8652 14.9883 63.8223 15.0059 63.7676 15.0176C63.7129 15.0293 63.6328 15.0352 63.5273 15.0352C63.4258 15.0352 63.3438 15.0293 63.2812 15.0176C63.2227 15.0059 63.1797 14.9883 63.1523 14.9648C63.125 14.9414 63.1113 14.9062 63.1113 14.8594V14.332C62.8809 14.5781 62.623 14.7695 62.3379 14.9062C62.0566 15.043 61.7578 15.1113 61.4414 15.1113C61.1641 15.1113 60.9121 15.0742 60.6855 15C60.4629 14.9297 60.2715 14.8262 60.1113 14.6895C59.9551 14.5527 59.832 14.3848 59.7422 14.1855C59.6562 13.9863 59.6133 13.7598 59.6133 13.5059C59.6133 13.209 59.6738 12.9512 59.7949 12.7324C59.916 12.5137 60.0898 12.332 60.3164 12.1875C60.543 12.043 60.8203 11.9355 61.1484 11.8652C61.4766 11.791 61.8457 11.7539 62.2559 11.7539H62.9824V11.3438C62.9824 11.1406 62.9609 10.9609 62.918 10.8047C62.875 10.6484 62.8047 10.5195 62.707 10.418C62.6133 10.3125 62.4902 10.2344 62.3379 10.1836C62.1855 10.1289 61.998 10.1016 61.7754 10.1016C61.5371 10.1016 61.3223 10.1309 61.1309 10.1895C60.9434 10.2441 60.7773 10.3066 60.6328 10.377C60.4922 10.4434 60.373 10.5059 60.2754 10.5645C60.1816 10.6191 60.1113 10.6465 60.0645 10.6465C60.0332 10.6465 60.0059 10.6387 59.9824 10.623C59.959 10.6074 59.9375 10.584 59.918 10.5527C59.9023 10.5215 59.8906 10.4824 59.8828 10.4355C59.875 10.3848 59.8711 10.3301 59.8711 10.2715C59.8711 10.1738 59.877 10.0977 59.8887 10.043C59.9043 9.98438 59.9375 9.92969 59.9883 9.87891C60.043 9.82812 60.1348 9.76953 60.2637 9.70312C60.3926 9.63281 60.541 9.57031 60.709 9.51562C60.877 9.45703 61.0605 9.41016 61.2598 9.375C61.459 9.33594 61.6602 9.31641 61.8633 9.31641C62.2422 9.31641 62.5645 9.35938 62.8301 9.44531C63.0957 9.53125 63.3105 9.6582 63.4746 9.82617C63.6387 9.99023 63.7578 10.1953 63.832 10.4414C63.9062 10.6875 63.9434 10.9746 63.9434 11.3027V14.8594ZM62.9824 12.4512H62.1562C61.8906 12.4512 61.6602 12.4746 61.4648 12.5215C61.2695 12.5645 61.1074 12.6309 60.9785 12.7207C60.8496 12.8066 60.7539 12.9121 60.6914 13.0371C60.6328 13.1582 60.6035 13.2988 60.6035 13.459C60.6035 13.7324 60.6895 13.9512 60.8613 14.1152C61.0371 14.2754 61.2812 14.3555 61.5938 14.3555C61.8477 14.3555 62.082 14.291 62.2969 14.1621C62.5156 14.0332 62.7441 13.8359 62.9824 13.5703V12.4512ZM69.0352 13.418C69.0352 13.6875 68.9844 13.9277 68.8828 14.1387C68.7852 14.3496 68.6445 14.5273 68.4609 14.6719C68.2773 14.8164 68.0586 14.9258 67.8047 15C67.5508 15.0742 67.2715 15.1113 66.9668 15.1113C66.7793 15.1113 66.5996 15.0957 66.4277 15.0645C66.2598 15.0371 66.1074 15.002 65.9707 14.959C65.8379 14.9121 65.7246 14.8652 65.6309 14.8184C65.5371 14.7676 65.4688 14.7227 65.4258 14.6836C65.3828 14.6445 65.3516 14.5898 65.332 14.5195C65.3125 14.4492 65.3027 14.3535 65.3027 14.2324C65.3027 14.1582 65.3066 14.0957 65.3145 14.0449C65.3223 13.9941 65.332 13.9531 65.3438 13.9219C65.3555 13.8906 65.3711 13.8691 65.3906 13.8574C65.4141 13.8418 65.4395 13.834 65.4668 13.834C65.5098 13.834 65.5723 13.8613 65.6543 13.916C65.7402 13.9668 65.8438 14.0234 65.9648 14.0859C66.0898 14.1484 66.2363 14.207 66.4043 14.2617C66.5723 14.3125 66.7656 14.3379 66.9844 14.3379C67.1484 14.3379 67.2969 14.3203 67.4297 14.2852C67.5625 14.25 67.6777 14.1992 67.7754 14.1328C67.873 14.0625 67.9473 13.9746 67.998 13.8691C68.0527 13.7637 68.0801 13.6387 68.0801 13.4941C68.0801 13.3457 68.041 13.2207 67.9629 13.1191C67.8887 13.0176 67.7891 12.9277 67.6641 12.8496C67.5391 12.7715 67.3984 12.7031 67.2422 12.6445C67.0859 12.582 66.9238 12.5176 66.7559 12.4512C66.5918 12.3848 66.4297 12.3105 66.2695 12.2285C66.1133 12.1426 65.9727 12.0391 65.8477 11.918C65.7227 11.7969 65.6211 11.6523 65.543 11.4844C65.4688 11.3164 65.4316 11.1152 65.4316 10.8809C65.4316 10.6738 65.4707 10.4766 65.5488 10.2891C65.6309 10.0977 65.752 9.93164 65.9121 9.79102C66.0723 9.64648 66.2715 9.53125 66.5098 9.44531C66.752 9.35938 67.0332 9.31641 67.3535 9.31641C67.4941 9.31641 67.6348 9.32812 67.7754 9.35156C67.916 9.375 68.043 9.4043 68.1562 9.43945C68.2695 9.47461 68.3652 9.51367 68.4434 9.55664C68.5254 9.5957 68.5859 9.63086 68.625 9.66211C68.668 9.69336 68.6953 9.7207 68.707 9.74414C68.7227 9.76758 68.7324 9.79492 68.7363 9.82617C68.7441 9.85352 68.75 9.88867 68.7539 9.93164C68.7617 9.97461 68.7656 10.0273 68.7656 10.0898C68.7656 10.1562 68.7617 10.2148 68.7539 10.2656C68.75 10.3125 68.7402 10.3516 68.7246 10.3828C68.7129 10.4141 68.6973 10.4375 68.6777 10.4531C68.6582 10.4648 68.6367 10.4707 68.6133 10.4707C68.5781 10.4707 68.5273 10.4492 68.4609 10.4062C68.3945 10.3633 68.3086 10.3184 68.2031 10.2715C68.0977 10.2207 67.9727 10.1738 67.8281 10.1309C67.6875 10.0879 67.5254 10.0664 67.3418 10.0664C67.1777 10.0664 67.0332 10.0859 66.9082 10.125C66.7832 10.1602 66.6797 10.2129 66.5977 10.2832C66.5195 10.3496 66.459 10.4297 66.416 10.5234C66.377 10.6172 66.3574 10.7188 66.3574 10.8281C66.3574 10.9805 66.3965 11.1094 66.4746 11.2148C66.5527 11.3164 66.6543 11.4062 66.7793 11.4844C66.9043 11.5625 67.0469 11.6328 67.207 11.6953C67.3672 11.7578 67.5293 11.8223 67.6934 11.8887C67.8613 11.9551 68.0254 12.0293 68.1855 12.1113C68.3496 12.1934 68.4941 12.293 68.6191 12.4102C68.7441 12.5273 68.8438 12.668 68.918 12.832C68.9961 12.9961 69.0352 13.1914 69.0352 13.418ZM74.9238 11.9883C74.9238 12.1406 74.8848 12.25 74.8066 12.3164C74.7324 12.3789 74.6465 12.4102 74.5488 12.4102H71.0918C71.0918 12.7031 71.1211 12.9668 71.1797 13.2012C71.2383 13.4355 71.3359 13.6367 71.4727 13.8047C71.6094 13.9727 71.7871 14.1016 72.0059 14.1914C72.2246 14.2812 72.4922 14.3262 72.8086 14.3262C73.0586 14.3262 73.2812 14.3066 73.4766 14.2676C73.6719 14.2246 73.8398 14.1777 73.9805 14.127C74.125 14.0762 74.2422 14.0312 74.332 13.9922C74.4258 13.9492 74.4961 13.9277 74.543 13.9277C74.5703 13.9277 74.5938 13.9355 74.6133 13.9512C74.6367 13.9629 74.6543 13.9824 74.666 14.0098C74.6777 14.0371 74.6855 14.0762 74.6895 14.127C74.6973 14.1738 74.7012 14.2324 74.7012 14.3027C74.7012 14.3535 74.6992 14.3984 74.6953 14.4375C74.6914 14.4727 74.6855 14.5059 74.6777 14.5371C74.6738 14.5645 74.6641 14.5898 74.6484 14.6133C74.6367 14.6367 74.6191 14.6602 74.5957 14.6836C74.5762 14.7031 74.5137 14.7383 74.4082 14.7891C74.3027 14.8359 74.166 14.8828 73.998 14.9297C73.8301 14.9766 73.6348 15.0176 73.4121 15.0527C73.1934 15.0918 72.959 15.1113 72.709 15.1113C72.2754 15.1113 71.8945 15.0508 71.5664 14.9297C71.2422 14.8086 70.9688 14.6289 70.7461 14.3906C70.5234 14.1523 70.3555 13.8535 70.2422 13.4941C70.1289 13.1348 70.0723 12.7168 70.0723 12.2402C70.0723 11.7871 70.1309 11.3809 70.248 11.0215C70.3652 10.6582 70.5332 10.3516 70.752 10.1016C70.9746 9.84766 71.2422 9.6543 71.5547 9.52148C71.8672 9.38477 72.2168 9.31641 72.6035 9.31641C73.0176 9.31641 73.3691 9.38281 73.6582 9.51562C73.9512 9.64844 74.1914 9.82812 74.3789 10.0547C74.5664 10.2773 74.7031 10.541 74.7891 10.8457C74.8789 11.1465 74.9238 11.4688 74.9238 11.8125V11.9883ZM73.9512 11.7012C73.9629 11.1934 73.8496 10.7949 73.6113 10.5059C73.377 10.2168 73.0273 10.0723 72.5625 10.0723C72.3242 10.0723 72.1152 10.1172 71.9355 10.207C71.7559 10.2969 71.6055 10.416 71.4844 10.5645C71.3633 10.7129 71.2695 10.8867 71.2031 11.0859C71.1367 11.2812 71.0996 11.4863 71.0918 11.7012H73.9512Z" fill="white"/>
<rect width="46" height="24" transform="translate(84)" fill="#0A944F"/>
<path d="M97.3496 9.56836C97.3496 9.58398 97.3477 9.60156 97.3438 9.62109C97.3438 9.63672 97.3418 9.6543 97.3379 9.67383C97.334 9.69336 97.3281 9.71484 97.3203 9.73828C97.3164 9.76172 97.3105 9.78711 97.3027 9.81445L95.5039 14.8242C95.4883 14.8672 95.4668 14.9023 95.4395 14.9297C95.416 14.957 95.3789 14.9785 95.3281 14.9941C95.2773 15.0098 95.2129 15.0195 95.1348 15.0234C95.0566 15.0312 94.959 15.0352 94.8418 15.0352C94.7246 15.0352 94.627 15.0312 94.5488 15.0234C94.4707 15.0156 94.4062 15.0039 94.3555 14.9883C94.3086 14.9727 94.2715 14.9512 94.2441 14.9238C94.2168 14.8965 94.1953 14.8633 94.1797 14.8242L92.3867 9.81445C92.3711 9.76758 92.3574 9.72656 92.3457 9.69141C92.3379 9.65625 92.332 9.63086 92.3281 9.61523C92.3281 9.5957 92.3281 9.58008 92.3281 9.56836C92.3281 9.53711 92.3359 9.50977 92.3516 9.48633C92.3672 9.46289 92.3926 9.44531 92.4277 9.43359C92.4668 9.41797 92.5156 9.4082 92.5742 9.4043C92.6367 9.40039 92.7129 9.39844 92.8027 9.39844C92.916 9.39844 93.0059 9.40234 93.0723 9.41016C93.1426 9.41406 93.1953 9.42383 93.2305 9.43945C93.2695 9.45508 93.2969 9.47461 93.3125 9.49805C93.332 9.52148 93.3496 9.55078 93.3652 9.58594L94.8535 13.9336L94.877 14.0039L94.8945 13.9336L96.3652 9.58594C96.373 9.55078 96.3867 9.52148 96.4062 9.49805C96.4258 9.47461 96.4531 9.45508 96.4883 9.43945C96.5273 9.42383 96.5781 9.41406 96.6406 9.41016C96.707 9.40234 96.793 9.39844 96.8984 9.39844C96.9883 9.39844 97.0625 9.40039 97.1211 9.4043C97.1797 9.4082 97.2246 9.41797 97.2559 9.43359C97.291 9.44922 97.3145 9.46875 97.3262 9.49219C97.3418 9.51172 97.3496 9.53711 97.3496 9.56836ZM102.986 14.6016C102.986 14.6758 102.98 14.7383 102.969 14.7891C102.957 14.8398 102.941 14.8809 102.922 14.9121C102.902 14.9434 102.879 14.9668 102.852 14.9824C102.828 14.9941 102.803 15 102.775 15H98.8145C98.7871 15 98.7617 14.9941 98.7383 14.9824C98.7148 14.9668 98.6914 14.9434 98.668 14.9121C98.6484 14.8809 98.6328 14.8398 98.6211 14.7891C98.6094 14.7383 98.6035 14.6758 98.6035 14.6016C98.6035 14.5312 98.6094 14.4707 98.6211 14.4199C98.6328 14.3691 98.6465 14.3281 98.6621 14.2969C98.6816 14.2617 98.7031 14.2363 98.7266 14.2207C98.7539 14.2012 98.7832 14.1914 98.8145 14.1914H100.396V8.42578L98.9316 9.29883C98.8574 9.33789 98.7969 9.36133 98.75 9.36914C98.707 9.37695 98.6719 9.36914 98.6445 9.3457C98.6172 9.31836 98.5977 9.27539 98.5859 9.2168C98.5781 9.1582 98.5742 9.08398 98.5742 8.99414C98.5742 8.92773 98.5762 8.87109 98.5801 8.82422C98.5879 8.77734 98.5977 8.73828 98.6094 8.70703C98.6211 8.67578 98.6367 8.64844 98.6562 8.625C98.6797 8.60156 98.709 8.57812 98.7441 8.55469L100.49 7.43555C100.506 7.42383 100.525 7.41406 100.549 7.40625C100.572 7.39844 100.602 7.39062 100.637 7.38281C100.672 7.375 100.713 7.37109 100.76 7.37109C100.807 7.36719 100.865 7.36523 100.936 7.36523C101.029 7.36523 101.107 7.36914 101.17 7.37695C101.232 7.38477 101.281 7.39648 101.316 7.41211C101.352 7.42383 101.375 7.44141 101.387 7.46484C101.398 7.48438 101.404 7.50586 101.404 7.5293V14.1914H102.775C102.807 14.1914 102.836 14.2012 102.863 14.2207C102.891 14.2363 102.912 14.2617 102.928 14.2969C102.947 14.3281 102.961 14.3691 102.969 14.4199C102.98 14.4707 102.986 14.5312 102.986 14.6016ZM105.781 14.3613C105.781 14.6387 105.734 14.8242 105.641 14.918C105.551 15.0078 105.385 15.0527 105.143 15.0527C104.908 15.0527 104.746 15.0078 104.656 14.918C104.566 14.8281 104.521 14.6484 104.521 14.3789C104.521 14.1016 104.566 13.918 104.656 13.8281C104.75 13.7344 104.918 13.6875 105.16 13.6875C105.395 13.6875 105.557 13.7324 105.646 13.8223C105.736 13.9121 105.781 14.0918 105.781 14.3613ZM112.338 11.1914C112.338 11.7734 112.291 12.3047 112.197 12.7852C112.107 13.2656 111.955 13.6797 111.74 14.0273C111.529 14.3711 111.252 14.6387 110.908 14.8301C110.564 15.0176 110.141 15.1113 109.637 15.1113C109.16 15.1113 108.758 15.0273 108.43 14.8594C108.105 14.6875 107.844 14.4375 107.645 14.1094C107.445 13.7773 107.303 13.3711 107.217 12.8906C107.135 12.4062 107.094 11.8516 107.094 11.2266C107.094 10.6484 107.141 10.1191 107.234 9.63867C107.328 9.1543 107.48 8.74023 107.691 8.39648C107.902 8.04883 108.18 7.78125 108.523 7.59375C108.867 7.40234 109.289 7.30664 109.789 7.30664C110.27 7.30664 110.672 7.39258 110.996 7.56445C111.324 7.73242 111.588 7.98242 111.787 8.31445C111.986 8.64258 112.127 9.04883 112.209 9.5332C112.295 10.0137 112.338 10.5664 112.338 11.1914ZM111.307 11.2617C111.307 10.8828 111.293 10.543 111.266 10.2422C111.238 9.94141 111.197 9.67578 111.143 9.44531C111.092 9.21484 111.023 9.01758 110.938 8.85352C110.855 8.68555 110.756 8.54883 110.639 8.44336C110.521 8.33398 110.387 8.25586 110.234 8.20898C110.086 8.1582 109.918 8.13281 109.73 8.13281C109.398 8.13281 109.129 8.21094 108.922 8.36719C108.715 8.52344 108.551 8.73828 108.43 9.01172C108.312 9.28516 108.232 9.60547 108.189 9.97266C108.146 10.3398 108.125 10.7344 108.125 11.1562C108.125 11.7227 108.154 12.2051 108.213 12.6035C108.271 12.998 108.363 13.3203 108.488 13.5703C108.617 13.8203 108.779 14.002 108.975 14.1152C109.174 14.2285 109.414 14.2852 109.695 14.2852C109.914 14.2852 110.105 14.25 110.27 14.1797C110.438 14.1094 110.58 14.0098 110.697 13.8809C110.818 13.748 110.918 13.5898 110.996 13.4062C111.074 13.2227 111.137 13.0195 111.184 12.7969C111.23 12.5742 111.262 12.334 111.277 12.0762C111.297 11.8145 111.307 11.543 111.307 11.2617ZM114.898 14.3613C114.898 14.6387 114.852 14.8242 114.758 14.918C114.668 15.0078 114.502 15.0527 114.26 15.0527C114.025 15.0527 113.863 15.0078 113.773 14.918C113.684 14.8281 113.639 14.6484 113.639 14.3789C113.639 14.1016 113.684 13.918 113.773 13.8281C113.867 13.7344 114.035 13.6875 114.277 13.6875C114.512 13.6875 114.674 13.7324 114.764 13.8223C114.854 13.9121 114.898 14.0918 114.898 14.3613ZM121.455 11.1914C121.455 11.7734 121.408 12.3047 121.314 12.7852C121.225 13.2656 121.072 13.6797 120.857 14.0273C120.646 14.3711 120.369 14.6387 120.025 14.8301C119.682 15.0176 119.258 15.1113 118.754 15.1113C118.277 15.1113 117.875 15.0273 117.547 14.8594C117.223 14.6875 116.961 14.4375 116.762 14.1094C116.562 13.7773 116.42 13.3711 116.334 12.8906C116.252 12.4062 116.211 11.8516 116.211 11.2266C116.211 10.6484 116.258 10.1191 116.352 9.63867C116.445 9.1543 116.598 8.74023 116.809 8.39648C117.02 8.04883 117.297 7.78125 117.641 7.59375C117.984 7.40234 118.406 7.30664 118.906 7.30664C119.387 7.30664 119.789 7.39258 120.113 7.56445C120.441 7.73242 120.705 7.98242 120.904 8.31445C121.104 8.64258 121.244 9.04883 121.326 9.5332C121.412 10.0137 121.455 10.5664 121.455 11.1914ZM120.424 11.2617C120.424 10.8828 120.41 10.543 120.383 10.2422C120.355 9.94141 120.314 9.67578 120.26 9.44531C120.209 9.21484 120.141 9.01758 120.055 8.85352C119.973 8.68555 119.873 8.54883 119.756 8.44336C119.639 8.33398 119.504 8.25586 119.352 8.20898C119.203 8.1582 119.035 8.13281 118.848 8.13281C118.516 8.13281 118.246 8.21094 118.039 8.36719C117.832 8.52344 117.668 8.73828 117.547 9.01172C117.43 9.28516 117.35 9.60547 117.307 9.97266C117.264 10.3398 117.242 10.7344 117.242 11.1562C117.242 11.7227 117.271 12.2051 117.33 12.6035C117.389 12.998 117.48 13.3203 117.605 13.5703C117.734 13.8203 117.896 14.002 118.092 14.1152C118.291 14.2285 118.531 14.2852 118.812 14.2852C119.031 14.2852 119.223 14.25 119.387 14.1797C119.555 14.1094 119.697 14.0098 119.814 13.8809C119.936 13.748 120.035 13.5898 120.113 13.4062C120.191 13.2227 120.254 13.0195 120.301 12.7969C120.348 12.5742 120.379 12.334 120.395 12.0762C120.414 11.8145 120.424 11.543 120.424 11.2617Z" fill="white"/>
</g>
<defs>
<clipPath id="clip0_50_40">
<rect width="130" height="24" rx="4" fill="white"/>
</clipPath>
</defs>
</svg>
